<?xml version="1.0" encoding="UTF-8"?>
<!DOCTYPE svg PUBLIC "-//W3C//DTD SVG 1.1//EN" "http://www.w3.org/Graphics/SVG/1.1/DTD/svg11.dtd">
<!-- Creator: CorelDRAW X6 -->
<svg xmlns="http://www.w3.org/2000/svg" xml:space="preserve" width="8.26772in" height="11.6929in" version="1.1" style="shape-rendering:geometricPrecision; text-rendering:geometricPrecision; image-rendering:optimizeQuality; fill-rule:evenodd; clip-rule:evenodd"
viewBox="0 0 8268 11693"
 xmlns:xlink="http://www.w3.org/1999/xlink">
 <defs>
  <style type="text/css">
   <![CDATA[
    .fil1 {fill:black}
    .fil0 {fill:white}
   ]]>
  </style>
 </defs>
 <g id="Layer_x0020_1">
  <metadata id="CorelCorpID_0Corel-Layer"/>
  <g id="_648984816">
   <path fill="#fff" d="M5773 3539c21,-79 183,-199 268,-210 314,-38 247,440 -22,513 -130,36 -250,-99 -260,-219 61,44 110,199 221,180 69,-12 181,-138 203,-206 37,-113 -24,-245 -149,-220 -96,19 -179,108 -261,161zm-2428 -29c197,130 186,145 428,206 172,43 353,76 527,118 -41,-170 -146,-183 -168,-266 160,39 289,296 151,389 -169,114 -541,244 -721,167 -126,-54 -201,-210 -201,-346 57,82 52,145 143,235 178,178 506,10 711,-54 77,-24 85,-24 85,-111 -72,0 -94,-9 -154,-14l-42 70 125 -31c-95,140 -854,211 -855,-263 64,46 53,188 248,271 107,46 367,70 436,20 -30,-26 -184,-33 -233,-40 -46,-7 -51,-23 -76,-28 -96,-20 -1,37 -142,-48 -51,-31 -88,-47 -149,-62 0,-129 26,-12 -116,-193l-75 126c-6,-123 119,-330 233,-340l-156 195zm941 -546c0,-107 63,-204 146,-261 216,-150 620,137 696,457 -276,-25 -597,-72 -842,-196zm-519 70c131,11 348,111 318,275 -26,146 -304,182 -411,112 -103,-67 -242,-276 -101,-370 85,-57 153,23 184,-111 21,-93 -9,-178 38,-257 34,144 60,216 -28,351zm-52 -206c-22,3 -567,-88 -579,-201 -5,-52 37,-150 73,-193 205,-241 597,140 506,393zm1524 -481c-64,-43 -82,-83 -168,-127 -195,-100 -595,-142 -632,-238 200,0 307,36 483,106 106,42 305,131 316,259zm-2209 -120c37,-93 88,-266 141,-391 54,-127 106,-267 170,-391 75,-148 39,-161 218,-329 264,-249 490,149 784,177 78,8 187,17 265,16 99,-1 176,15 266,14 217,-1 452,79 607,234 66,67 77,107 123,158 -26,-109 -16,-133 -76,-233 -249,-413 -589,-958 -1063,-416 -42,48 -96,156 -137,186 10,-112 246,-274 -113,-462 -174,-91 -494,-91 -678,-34 -193,60 -296,254 -354,431 -51,157 -131,485 -131,654l-28 0c0,-372 93,-839 397,-1076 199,-156 867,-187 1004,181 4,12 6,17 11,31l16 34c334,-447 761,-205 999,256 134,259 209,273 197,674 -7,219 -58,519 -155,715 187,-16 277,-281 314,-429 34,-133 36,-199 36,-343 1,-181 -42,-240 -42,-336 137,156 112,630 22,864 -31,81 -41,95 -85,168 -39,64 -15,230 -97,436 -25,62 -87,112 -93,174 120,29 219,38 323,-98 154,-202 264,-333 363,-591 58,-153 72,-240 72,-419l42 0c0,399 -216,819 -487,1084 -122,119 -320,106 -383,10 62,-93 88,-88 137,-214 28,-74 60,-211 60,-291 -46,13 -80,47 -134,62 -80,22 -105,0 -174,-6 14,-55 79,-140 108,-214 60,-149 103,-370 116,-529 11,-127 44,-149 -29,-267 -300,-487 -1122,-262 -1465,-471 -138,-84 -287,-203 -448,-124 -302,149 -332,548 -472,819 107,-26 195,-89 315,-63 78,17 231,70 260,147 -187,4 -222,-73 -337,-84 -63,-6 -128,4 -188,22 -79,24 -70,41 -94,116 -134,426 38,303 -88,740 -76,263 -116,430 -13,697 67,174 209,384 299,557 110,213 257,324 505,337 999,50 1610,-785 1711,-842 -21,76 -111,145 -154,210 73,110 493,386 732,171 131,-118 204,-416 110,-606 -33,-67 -98,-123 -71,-182 59,16 90,98 122,136 441,-374 247,-1217 112,-1688 -109,-379 -348,-680 -676,-909 -123,-86 -321,-86 -399,-134 -38,27 9,19 109,101 275,227 577,522 696,861 84,240 10,513 -67,744 -37,110 -205,567 -304,594 148,-296 231,-533 311,-853 92,-364 0,-578 -213,-873 -160,-222 -381,-409 -618,-546 -159,-92 -289,-97 -453,-5 -221,124 -249,233 -332,257 60,-120 210,-251 332,-314 53,-27 120,-40 159,-65 -174,-42 -103,-80 -423,-44 -238,27 -367,-25 -475,-27 -232,-3 -540,149 -760,237 -263,106 -279,447 -313,683l-22 483c0,168 6,278 78,427z"/>
   <path fill="#fff" d="M3712 8798c-101,-132 -368,-192 -432,-248l13 -45c119,29 274,113 379,179 181,112 133,203 247,328 255,279 699,-9 1007,-161 80,-39 127,-53 138,-143 29,-237 -317,-895 -316,-1396 -56,-1 -130,-25 -176,-48 -97,-48 -74,-37 -119,-134 -74,0 -104,14 -168,14 -356,0 -862,26 -1191,-43 -77,-16 -256,-82 -309,-83l-14 364c0,73 0,104 -10,173l-38 537c-50,365 -81,657 343,748 204,44 387,62 580,-7l65 -35z"/>
   <path fill="#000" d="M4637 11099c115,76 118,109 351,99 123,-6 208,-88 280,-169 0,179 -130,247 -286,261 -46,4 -175,-14 -224,-31 -87,-29 -121,-62 -121,-160zm249 -24c44,25 34,30 82,19 63,-14 15,-11 78,-9 85,2 35,-7 81,-29 29,-14 1,-12 33,-4 40,11 12,8 21,16 -93,93 -333,128 -431,60 118,-5 82,10 137,-53zm144 -60l56 0 0 -28 -56 0 0 28zm-126 42c-36,-79 -36,-224 39,-283 60,-48 158,-101 227,-151 9,99 82,197 84,309 -46,-17 -11,8 -47,-51 -24,-40 4,-18 -37,-47 0,64 9,73 14,124l-52 15 -42 -107c-42,57 -8,65 2,118 7,38 -3,87 -47,61 -66,-33 1,-74 -84,-196 -26,106 33,117 5,205l-61 5zm0 -56c60,-5 25,18 56,-28l-56 0 0 28zm238 -14c54,-5 15,8 56,-14 -4,16 6,37 -30,41 -48,6 -17,-3 -26,-27zm-491 -365c257,170 176,207 196,337 33,210 -176,164 -182,-14l-14 -168 0 -154zm-1964 -56c54,82 222,81 319,67 242,-35 754,-107 929,-235 -7,74 -55,68 -121,89 -178,59 -313,83 -497,120 -109,22 -232,52 -339,68 -178,27 -311,-93 -308,-98l16 -12zm56 -168l4 109c45,45 72,55 109,88 -88,-2 -146,-27 -185,-101l73 -96zm211 196c77,-68 237,-128 338,-138 75,-8 145,-11 217,-22 72,-11 126,-42 146,34 -73,2 -257,61 -339,81 -139,35 -209,45 -362,45zm-29 -307c22,-54 99,-44 169,-44 169,1 356,20 491,141 -75,2 -168,23 -252,28 -317,19 -435,272 -564,39l16 -12c48,73 113,48 154,-14 -71,0 -74,24 -126,0 16,-43 49,-46 98,-70 46,-22 70,-31 84,-70 -21,-13 5,-5 -27,-6 -58,-2 4,23 -44,7zm846 72c37,-30 32,-45 70,-76l68 59c-17,69 -33,63 -101,82 -57,16 -75,30 -120,-15l83 -50zm-830 -143c49,-74 81,-103 168,-112 -34,51 -107,107 -168,112zm1318 -1038c154,0 565,-194 700,-282 16,18 -1,-5 19,25 2,3 4,6 6,9 86,142 146,349 159,515l-28 686c1,155 -4,309 28,449l-37 19c-51,22 -58,15 -114,55 -42,30 -78,70 -116,95 -23,-35 -63,-73 -95,-102 -22,-19 -33,-25 -55,-43 -7,-6 -17,-14 -24,-19 -21,-17 -9,-7 -24,-21 27,-47 33,-142 41,-200 16,-120 -115,-162 -238,-470 -73,-182 -131,-348 -178,-538 -14,-56 -22,-132 -45,-180zm-884 0c-153,14 -201,43 -363,-1 -39,-11 -72,1 -84,-126 -6,-58 -1,-135 -1,-195 184,85 475,86 673,56 0,89 -26,121 -28,196 99,-11 -8,0 70,-56 43,83 105,194 95,290 -29,276 -39,222 -39,523 0,112 221,384 -1,492 -109,53 -104,-156 -617,-156 37,-52 178,-142 208,-186 63,-95 -255,-709 -306,-810 104,25 314,82 393,-28zm272 -345c-193,69 -377,51 -580,7 -425,-92 -394,-383 -343,-748l38 -537c9,-68 10,-100 10,-173l14 -364c54,1 233,67 309,83 329,69 836,43 1191,43 65,0 95,-14 168,-14 45,97 22,86 119,134 46,23 120,47 176,48 -1,501 344,1159 316,1396 -11,90 -59,103 -138,143 -309,152 -752,440 -1007,161 -114,-125 -66,-215 -247,-328 -106,-66 -261,-150 -379,-179l-13 45c65,56 332,115 432,248l-65 35zm-1002 -1619c0,201 53,227 -4,305 -59,-34 -58,-156 -65,-247l68 -58zm2076 -842c0,-114 56,-498 59,-606l221 213c31,-28 69,-72 112,-84 -17,69 -94,132 -156,335 -30,100 -82,291 -83,392l-140 44 -14 -295zm319 -530l30 34 -53 20 23 -53zm-2549 1399c0,-148 52,-274 122,-397 82,-145 76,-199 109,-396 27,-164 138,-492 199,-685l25 -74c9,-23 0,-18 64,-5 0,404 -429,763 -276,1258 19,62 -18,414 -18,509l-14 0c0,-65 -11,-200 -27,-255 -27,-93 38,-55 41,-194 -60,7 -32,-10 -59,67 -43,122 -69,169 -165,171zm2568 -1444c58,-138 185,-241 319,-296 156,72 265,267 256,435 -8,146 -102,381 -173,515 -125,232 -242,306 -290,397 -170,321 -358,204 -313,357 68,12 -11,-10 75,-20 -17,63 -55,69 -112,98 -26,-40 -51,-117 -84,-140 0,65 0,68 14,126 -118,-29 -60,-86 -98,-168 -66,47 -6,84 0,154 -120,-80 -35,-95 -95,-165 -37,52 -15,72 10,123 -126,-35 -69,-242 20,-373 65,-96 25,-78 142,-124 65,-25 123,-48 189,-64 0,-160 78,-440 149,-580 154,-303 359,-242 384,-332 -138,0 -188,73 -295,126 -45,-23 -71,-46 -97,-69zm392 -352c-14,34 24,22 -44,25l44 -25zm-1290 1641c194,-384 68,-750 102,-993 12,-89 116,-392 103,-445 -41,-173 -102,-272 -54,-473 32,-132 108,-264 197,-365 68,-77 80,-98 180,-61 218,80 658,394 764,611 -84,118 -449,209 -449,533 -140,-34 -175,-232 -332,-301 -145,-63 62,119 66,133l-55 450c-12,148 -1,350 -1,504 -17,15 4,-2 -25,17 -109,73 -188,242 -200,375 -106,9 -181,14 -295,14zm-1276 -1557c36,-149 74,-304 145,-444 91,-181 108,-223 276,-313 -24,49 -80,113 -118,176 -118,196 -162,444 -162,679 -59,-5 -108,-50 -140,-98zm1248 1557c-272,1 -217,19 -561,0 -202,-11 -332,-4 -533,-56 -221,-57 -285,-68 -281,-309 2,-146 67,-319 121,-454 56,-141 145,-273 169,-420 58,-361 15,-628 230,-934 110,-157 161,-226 351,-224 -44,59 -249,172 -116,284 86,73 277,59 377,19 188,-74 455,-333 658,-265 -11,38 -212,172 -282,444 -32,123 -25,219 -2,341 31,169 76,98 16,275 -119,346 -60,395 -61,654 -2,255 32,412 -84,645zm-407 -2637c54,1 66,13 126,14 122,4 261,0 373,-20 117,-21 300,-69 399,-120 -33,137 -99,175 -98,351 -290,0 -209,11 -509,178 -172,96 -311,185 -501,60 1,-56 17,-88 54,-129 59,-65 101,-61 101,-61 78,-27 89,-202 55,-273zm-694 -2224c-72,-149 -78,-259 -78,-427l22 -483c34,-237 50,-578 313,-683 220,-88 528,-241 760,-237 108,2 237,54 475,27 320,-36 249,3 423,44 -40,25 -106,38 -159,65 -122,62 -271,194 -332,314 83,-24 110,-133 332,-257 164,-92 294,-87 453,5 237,137 458,324 618,546 213,294 305,509 213,873 -81,320 -163,557 -311,853 99,-27 267,-484 304,-594 77,-231 151,-504 67,-744 -119,-339 -421,-634 -696,-861 -100,-83 -147,-74 -109,-101 78,48 275,48 399,134 329,229 567,530 676,909 135,470 329,1314 -112,1688 -32,-37 -62,-120 -122,-136 -27,59 38,115 71,182 94,190 20,488 -110,606 -239,215 -659,-61 -732,-171 43,-66 133,-134 154,-210 -101,57 -713,892 -1711,842 -248,-12 -395,-124 -505,-337 -90,-173 -232,-383 -299,-557 -103,-267 -63,-434 13,-697 126,-437 -46,-313 88,-740 24,-75 15,-92 94,-116 60,-18 125,-28 188,-22 115,11 150,88 337,84 -30,-77 -182,-130 -260,-147 -119,-26 -208,37 -315,63 140,-271 169,-670 472,-819 161,-79 310,39 448,124 343,209 1165,-16 1465,471 73,118 40,140 29,267 -14,158 -57,379 -116,529 -30,74 -95,159 -108,214 69,6 94,28 174,6 54,-15 88,-50 134,-62 0,80 -32,217 -60,291 -48,126 -75,121 -137,214 63,96 260,109 383,-10 271,-264 487,-685 487,-1084l-42 0c0,179 -13,266 -72,419 -99,258 -209,389 -363,591 -104,136 -203,127 -323,98 5,-61 68,-112 93,-174 82,-206 58,-372 97,-436 44,-73 54,-87 85,-168 90,-234 115,-708 -22,-864 0,97 43,155 42,336 -1,144 -3,210 -36,343 -38,148 -127,413 -314,429 97,-196 148,-496 155,-715 12,-401 -63,-415 -197,-674 -238,-461 -665,-702 -999,-256l-16 -34c-5,-13 -6,-19 -11,-31 -137,-367 -805,-336 -1004,-181 -304,237 -397,704 -397,1076l28 0c0,-169 80,-497 131,-654 58,-177 161,-371 354,-431 184,-57 504,-57 678,34 359,188 123,350 113,462 41,-29 95,-137 137,-186 474,-542 814,3 1063,416 60,99 50,124 76,233 -46,-51 -56,-91 -123,-158 -155,-156 -390,-235 -607,-234 -90,0 -167,-15 -266,-14 -77,1 -187,-8 -265,-16 -294,-29 -520,-426 -784,-177 -179,168 -143,181 -218,329 -63,124 -116,264 -170,391 -53,125 -103,299 -141,391zm666 2210c-2,28 -17,169 -24,187 -35,13 -153,23 -204,35 -75,18 -119,29 -189,64 -139,70 -175,105 -254,236 -73,120 -163,394 -192,539 -19,94 34,96 79,161 -59,104 -212,662 -236,802 -33,192 -23,226 -121,398 -51,90 -136,312 -98,416l88 11c0,101 -19,250 98,279l70 -70 -66 761c-34,257 1,468 235,585 0,103 -8,244 32,333 97,217 285,530 347,789 -125,192 -236,15 -341,206 -55,101 -9,34 -106,76l-167 198c-54,109 -8,203 100,244 173,67 450,-9 626,-51 99,-24 201,-39 300,-64 93,-24 200,-68 289,-90 0,-187 -14,-154 -126,-252 0,-196 -39,-157 -89,-304 -57,-169 61,-568 7,-737 -31,-98 -147,-205 -101,-278 20,-48 -18,-6 45,-39 19,-10 46,-20 67,-31 53,221 236,351 463,351 17,228 165,638 276,860 145,291 246,190 113,538 -20,53 -8,281 -20,373 -45,330 117,364 404,361 266,-2 349,-210 289,-444 -77,-296 -135,-296 -135,-636 0,-255 14,-501 14,-757 0,-268 -45,-376 -164,-608 50,-42 101,-43 108,-135 25,-314 -196,-685 -287,-1229 -8,-46 -22,-187 -36,-216 102,0 170,-3 196,-112l-40 -54c80,-52 97,-33 165,-116 59,-72 80,-137 125,-197 43,-57 100,-102 151,-172 139,-193 245,-436 281,-673 35,-230 -68,-294 -177,-457 -24,-93 184,-128 -337,-519 -150,-113 -408,-307 -589,-323 0,-115 39,-213 93,-313 56,-103 135,-114 232,-175 127,-79 369,-251 446,-368 100,66 130,114 257,178 104,52 219,99 345,89 254,-20 383,-288 394,-491 15,-283 -92,-157 48,-330 384,-475 192,-1269 17,-1797 -72,-216 -187,-377 -349,-535 -185,-180 -266,-288 -527,-357l-533 -126c-238,-103 -222,-92 -561,-62 -168,15 -253,-37 -396,-34 -231,5 -468,122 -679,206 -264,105 -331,219 -384,500 -61,324 -38,339 -45,615 -2,72 -18,139 -16,209 7,311 165,404 122,753 -37,304 -143,423 -68,766 44,201 191,413 283,600 114,231 170,378 449,435z"/>
   <path fill="#fff" d="M4132 7088c117,-234 83,-390 84,-645 2,-258 -58,-308 61,-654 61,-177 15,-106 -16,-275 -22,-122 -29,-218 2,-341 70,-273 271,-407 282,-444 -202,-69 -470,191 -658,265 -100,39 -290,53 -377,-19 -133,-112 71,-224 116,-284 -190,-1 -241,68 -351,224 -215,306 -172,573 -230,934 -24,147 -113,280 -169,420 -54,135 -118,309 -121,454 -4,241 60,253 281,309 201,52 331,45 533,56 344,19 289,1 561,0z"/>
   <path fill="#fff" d="M4160 7088c114,0 188,-5 295,-14 12,-133 91,-302 200,-375 29,-19 7,-2 25,-17 0,-154 -11,-356 1,-504l55 -450c-4,-14 -210,-196 -66,-133 158,69 192,267 332,301 0,-324 365,-415 449,-533 -106,-217 -545,-531 -764,-611 -100,-37 -112,-16 -180,61 -88,101 -165,232 -197,365 -48,202 13,301 54,473 13,54 -91,357 -103,445 -33,243 93,608 -102,993z"/>
   <path fill="#fff" d="M4398 9486c61,0 122,1 183,0 63,0 91,-11 154,-15 102,-6 200,-54 281,-56 -135,121 -527,127 -617,70zm-140 -309c22,48 31,124 45,180 47,189 105,356 178,538 123,308 253,350 238,470 -7,57 -14,152 -41,200 15,13 3,3 24,21 7,6 17,14 24,19 23,17 33,23 55,43 32,28 72,67 95,102 37,-25 74,-64 116,-95 55,-40 62,-33 114,-55l37 -19c-32,-140 -27,-294 -28,-449l28 -686c-13,-166 -73,-374 -159,-515 -2,-3 -4,-6 -6,-9 -20,-31 -3,-7 -19,-25 -136,88 -546,282 -700,282z"/>
   <path fill="#fff" d="M5059 5799c27,23 52,47 97,69 106,-53 157,-126 295,-126 -24,90 -229,29 -384,332 -72,141 -149,420 -149,580 -65,16 -124,39 -189,64 -117,46 -77,28 -142,124 -89,131 -146,338 -20,373 -26,-51 -48,-71 -10,-123 60,70 -26,85 95,165 -6,-71 -66,-107 0,-154 38,82 -20,140 98,168 -14,-58 -14,-61 -14,-126 33,24 58,100 84,140 57,-29 95,-35 112,-98 -86,10 -7,32 -75,20 -44,-153 144,-35 313,-357 48,-92 166,-165 290,-397 72,-133 166,-368 173,-515 9,-168 -100,-363 -256,-435 -133,55 -261,158 -319,296z"/>
   <path fill="#fff" d="M3374 9178c-78,110 -289,53 -393,28 51,101 370,714 306,810 -29,44 -171,134 -208,186 512,0 508,208 617,156 221,-108 1,-380 1,-492 0,-301 9,-248 39,-523 10,-97 -52,-207 -95,-290 -78,56 29,45 -70,56 2,-76 28,-107 28,-196 -199,29 -489,29 -673,-56 0,60 -4,137 1,195 13,128 45,116 84,126 162,44 210,15 363,1z"/>
   <path fill="#fff" d="M3725 4451c33,72 22,246 -55,273 0,0 -42,-4 -101,61 -37,41 -53,73 -54,129 190,124 329,35 501,-60 300,-167 219,-178 509,-178 0,-175 65,-214 98,-351 -98,51 -282,99 -399,120 -113,20 -252,24 -373,20 -60,-2 -72,-13 -126,-14z"/>
   <path fill="#000" d="M4077 3831c51,9 5,2 23,13 -49,35 -34,33 -52,-7 22,-16 -5,-12 29,-6zm-169 3l0 -31 112 17c-33,46 -34,14 -112,14zm-28 -42l-123 2c37,-29 59,-2 123,-2zm-224 -28c0,0 0,-47 67,10 -42,30 -43,11 -67,-10zm-154 -449c-114,10 -238,217 -233,340l75 -126c142,181 116,64 116,193 60,15 97,30 149,62 140,85 46,28 142,48 25,5 29,21 76,28 49,8 203,14 233,40 -69,50 -329,26 -436,-20 -194,-83 -184,-225 -248,-271 0,474 760,403 855,263l-125 31 42 -70c60,5 82,14 154,14 0,87 -8,87 -85,111 -205,64 -533,232 -711,54 -91,-91 -86,-153 -143,-235 0,135 76,292 201,346 180,77 552,-53 721,-167 139,-93 10,-351 -151,-389 23,84 128,96 168,266 -174,-42 -355,-75 -527,-118 -242,-61 -231,-76 -428,-206l156 -195z"/>
   <path fill="#000" d="M4889 3076c22,-80 42,-74 42,-182 53,35 98,137 112,198l-154 -16zm-589 -126c124,-245 317,-305 393,-154 -59,118 -141,101 -140,-42 -79,52 -70,149 -71,242l-181 -46zm269 -212c33,-18 -14,-5 -16,1 -15,36 16,-1 16,-1zm-283 226c245,124 566,172 842,196 -76,-320 -480,-607 -696,-457 -83,58 -145,154 -146,261z"/>
   <path fill="#fff" d="M4721 6373l14 295 140 -44c1,-102 53,-293 83,-392 62,-203 139,-266 156,-335 -44,12 -81,56 -112,84l-221 -213c-3,108 -59,492 -59,606z"/>
   <path fill="#fff" d="M2491 7242c97,-2 122,-50 165,-171 27,-77 -1,-61 59,-67 -3,139 -67,101 -41,194 16,56 27,190 27,255l14 0c0,-95 38,-447 18,-509 -153,-495 277,-854 276,-1258 -65,-14 -55,-19 -64,5l-25 74c-61,193 -172,520 -199,685 -32,197 -27,251 -109,396 -69,123 -122,249 -122,397z"/>
   <path fill="#fff" d="M2924 10287c48,16 -13,-8 44,-7 32,1 6,-8 27,6 -14,39 -38,48 -84,70 -49,24 -82,27 -98,70 52,24 56,0 126,0 -41,63 -106,87 -154,14l-16 12c129,233 247,-20 564,-39 84,-5 177,-27 252,-28 -135,-121 -322,-140 -491,-141 -70,0 -147,-11 -169,44z"/>
   <path fill="#fff" d="M3767 3315c30,-10 43,-15 80,-5l4 103c-48,-12 -69,-15 -84,-56l0 -42zm-210 -56c62,0 58,-13 103,23 2,28 -15,39 -33,75 109,72 134,114 285,60 227,-81 146,-274 -178,-336 -226,-43 -182,114 -177,177z"/>
   <path fill="#000" d="M3164 2642c9,-99 93,-209 184,-223 118,-18 144,13 190,75 79,107 -61,82 -111,87 -20,54 -23,55 -23,117 -64,0 -183,-30 -238,-56zm552 186c91,-253 -302,-634 -506,-393 -36,42 -78,140 -73,193 12,113 556,204 579,201z"/>
   <path fill="#fff" d="M5029 10987l56 0 0 28 -56 0 0 -28zm-126 14l0 -28 56 0c-32,46 3,23 -56,28zm0 56l61 -5c28,-88 -31,-99 -5,-205 85,123 18,163 84,196 44,26 55,-23 47,-61 -10,-53 -43,-61 -2,-118l42 107 52 -15c-4,-51 -14,-60 -14,-124 41,29 13,7 37,47 36,59 1,34 47,51 -2,-112 -75,-210 -84,-309 -70,51 -167,103 -227,151 -75,60 -76,204 -39,283z"/>
   <path fill="#fff" d="M2883 5531c32,48 81,93 140,98 0,-235 44,-484 162,-679 38,-63 94,-127 118,-176 -168,90 -185,132 -276,313 -70,141 -109,296 -145,444z"/>
   <path fill="#000" d="M3557 3259c-6,-63 -50,-221 177,-177 324,62 405,255 178,336 -151,54 -175,12 -285,-60 18,-36 35,-47 33,-75 -45,-36 -41,-23 -103,-23zm210 -224c88,-135 62,-207 28,-351 -47,79 -16,164 -38,257 -31,134 -99,54 -184,111 -141,94 -2,303 101,370 107,70 384,34 411,-112 30,-164 -187,-264 -318,-275z"/>
   <path fill="#fff" d="M3164 2642c56,26 175,56 238,56 0,-62 3,-63 23,-117 50,-5 190,19 111,-87 -46,-62 -72,-93 -190,-75 -91,14 -175,124 -184,223z"/>
   <path fill="#fff" d="M4710 10973c13,-10 -7,-9 26,-13l74 22c1,-3 5,4 8,9l-108 -17zm-60 -196l14 168c7,178 215,224 182,14 -20,-130 61,-167 -196,-337l0 154z"/>
   <path fill="#000" d="M5773 3539c82,-53 165,-143 261,-161 125,-24 186,107 149,220 -22,67 -134,194 -203,206 -111,19 -160,-137 -221,-180 10,120 130,255 260,219 269,-73 336,-551 22,-513 -85,10 -247,131 -268,210z"/>
   <path fill="#fff" d="M4637 11099c0,98 33,130 121,160 49,17 178,35 224,31 156,-14 286,-82 286,-261 -72,80 -157,163 -280,169 -233,11 -236,-22 -351,-99z"/>
   <path fill="#000" d="M5240 2347c-11,-127 -211,-217 -316,-259 -176,-70 -283,-106 -483,-106 36,96 436,138 632,238 86,44 103,84 168,127z"/>
   <path fill="#fff" d="M2954 10594c153,0 223,-10 362,-45 82,-20 266,-80 339,-81 -21,-76 -74,-45 -146,-34 -72,11 -142,14 -217,22 -102,11 -262,71 -338,138z"/>
   <path fill="#fff" d="M4553 2740c3,-6 49,-20 16,-1 0,0 -31,37 -16,1zm-252 210l181 46c1,-94 -8,-191 71,-242 0,143 81,160 140,42 -76,-150 -269,-91 -393,154z"/>
   <path fill="#fff" d="M2687 10566l-16 12c-3,4 130,124 308,98 107,-16 230,-46 339,-68 184,-37 319,-61 497,-120 65,-22 114,-15 121,-89 -175,128 -687,200 -929,235 -97,14 -266,15 -319,-67z"/>
   <path fill="#fff" d="M4886 11075c-54,63 -19,48 -137,53 99,68 338,33 431,-60 -9,-8 19,-5 -21,-16 -33,-9 -4,-10 -33,4 -46,22 4,31 -81,29 -63,-2 -15,-5 -78,9 -48,11 -38,6 -82,-19z"/>
   <path fill="#000" d="M4398 9486c90,57 482,51 617,-70 -80,2 -179,50 -281,56 -62,4 -90,14 -154,15 -61,0 -122,0 -183,0z"/>
   <path fill="#fff" d="M2577 7272c6,90 6,213 65,247 57,-78 4,-104 4,-305l-68 58z"/>
   <path fill="#fff" d="M3687 10408c45,46 63,31 120,15 68,-19 84,-13 101,-82l-68 -59c-38,31 -33,46 -70,76l-83 50z"/>
   <path fill="#fff" d="M4889 3076l154 16c-14,-62 -59,-163 -112,-198 0,109 -20,102 -42,182z"/>
   <path fill="#fff" d="M2670 10494c39,73 97,99 185,101 -37,-33 -64,-42 -109,-88l-4 -109 -73 96z"/>
   <path fill="#000" d="M3767 3315l0 42c15,41 36,45 84,56l-4 -103c-38,-10 -50,-5 -80,5z"/>
   <path fill="#fff" d="M2940 10216c61,-6 135,-62 168,-112 -87,9 -120,38 -168,112z"/>
   <path fill="#fff" d="M3907 3834c79,0 79,32 112,-14l-112 -17 0 31z"/>
   <path fill="#fff" d="M3655 3764c24,21 24,41 67,10 -67,-57 -66,-10 -67,-10z"/>
   <path fill="#fff" d="M5142 10987c10,24 -22,32 26,27 36,-4 25,-25 30,-41 -41,22 -2,9 -56,14z"/>
   <path fill="#fff" d="M4048 3837c19,40 4,42 52,7 -18,-11 28,-5 -23,-13 -35,-6 -7,-9 -29,6z"/>
   <path fill="#000" d="M4710 10973l108 17c-3,-5 -7,-11 -8,-9l-74 -22c-33,5 -13,3 -26,13z"/>
   <polygon fill="#fff" points="5017,5896 5070,5876 5040,5843 "/>
   <path fill="#fff" d="M3757 3794l123 -2c-64,0 -86,-26 -123,2z"/>
   <path fill="#fff" d="M5406 5471c68,-2 30,9 44,-25l-44 25z"/>
  </g>
 </g>
</svg>
