<?xml version="1.0" encoding="UTF-8"?>
<!DOCTYPE svg PUBLIC "-//W3C//DTD SVG 1.1//EN" "http://www.w3.org/Graphics/SVG/1.1/DTD/svg11.dtd">
<!-- Creator: CorelDRAW X6 -->
<svg xmlns="http://www.w3.org/2000/svg" xml:space="preserve" width="8.26772in" height="11.6929in" version="1.1" style="shape-rendering:geometricPrecision; text-rendering:geometricPrecision; image-rendering:optimizeQuality; fill-rule:evenodd; clip-rule:evenodd"
viewBox="0 0 8268 11693"
 xmlns:xlink="http://www.w3.org/1999/xlink">
 <defs>
  <style type="text/css">
   <![CDATA[
    .fil1 {fill:black}
    .fil0 {fill:white}
   ]]>
  </style>
 </defs>
 <g id="Layer_x0020_1">
  <metadata id="CorelCorpID_0Corel-Layer"/>
  <g id="_650171088">
   <path fill="#fff" d="M3504 4132c0,-141 5,-276 152,-318l-56 98c206,275 265,293 663,373 76,15 219,54 296,49l-129 -119c132,12 293,156 246,288l-41 -54c-392,242 -1062,190 -1062,-413 25,38 30,107 51,156 210,497 699,319 1013,244 -94,-187 -333,62 -699,-47 -274,-81 -189,-215 -281,-340 -15,-20 -26,-37 -37,-60 -6,-12 -11,-25 -17,-37 -1,-3 -7,-10 -8,-16 -1,-4 -2,-5 -4,-8 -24,33 -58,159 -59,204l-28 0zm1054 211c0,-2 -3,-5 -4,-4l4 4zm-1206 -557c19,-81 40,-110 127,-136 66,-19 151,-23 205,25 -314,0 -247,51 -332,111zm912 14c38,43 113,235 -192,218 -119,-7 -81,72 -190,12 -46,-25 -163,-135 -179,-183 -29,-86 55,-189 132,-214 -38,58 -123,117 -91,199 11,28 129,132 160,147 72,36 48,-1 112,-13 140,-26 246,121 246,-167zm152 -442c78,-329 421,-375 640,-281 179,77 334,288 404,466 7,18 5,19 14,41l5 50c-112,-218 -203,-404 -437,-516 -111,-53 -289,-56 -402,-5 -179,81 -165,202 -225,245zm41 138c70,0 259,34 304,55 -40,-62 -66,-141 14,-193 0,149 141,143 97,-41 -124,0 -138,-9 -241,49 -58,33 -119,90 -173,103 42,-63 140,-141 211,-175 113,-54 184,-43 286,24 120,80 312,257 346,400 -129,0 -754,-160 -843,-221zm-649 221c34,-52 130,-78 195,-274 31,-91 44,-195 55,-291 8,-67 20,-67 21,-75 1,-5 3,-6 2,-9 23,157 22,328 -64,472 -55,93 -99,150 -210,177zm-442 -815c146,-210 270,-633 603,32 9,18 61,119 62,122l-16 12c-81,-161 -199,-360 -345,-456 -104,25 -182,130 -241,215 -51,75 -34,108 -63,75zm41 111c86,-171 210,-266 370,-108 101,100 224,274 224,425 -166,-15 -499,-174 -594,-318zm843 608c-62,-89 22,-349 57,-454 32,-96 117,-313 178,-388 -7,74 -109,312 -140,399 -45,124 -95,306 -95,444zm1381 -456c-38,-14 -27,-13 -56,-55 -246,-352 -718,-461 -842,-650 181,16 391,162 533,268 173,129 272,235 365,436zm-2127 -1395l58 -165c-92,98 -265,530 -265,745 67,-44 97,-119 303,-125 83,-2 332,11 373,70 -240,0 -421,-12 -663,111 0,132 15,264 14,386 -4,909 -165,813 299,1649 108,194 154,364 399,416 203,44 1099,-190 1286,-316 232,-157 493,-302 678,-524 51,-61 134,-187 184,-231 -30,-42 -44,38 -136,113 -40,32 -108,96 -154,108 143,-279 183,-212 381,-724 52,-135 88,-283 118,-435 36,-182 40,-325 40,-526 -76,86 -70,196 -138,221l-77 -351c-26,-117 -62,-226 -89,-339 -75,50 -64,67 -168,94 -98,26 -105,4 -197,66 -60,40 -276,217 -312,227 81,-160 138,-205 138,-456 -55,39 -185,255 -428,276 75,-150 125,-392 124,-566 -107,54 -183,112 -298,158 -64,26 -114,34 -172,63 -242,119 -512,390 -676,498 28,-105 191,-101 249,-746l-330 278c-4,-156 -15,1 -2,-223 6,-92 35,-148 42,-221 -331,188 -501,448 -580,470z"/>
   <path fill="#fff" d="M3021 5376c31,129 161,339 261,416l12 -17c101,-146 141,-139 141,-385l55 0c0,268 -92,308 -147,406 -96,170 -292,1122 -329,1329 -16,88 -91,389 -54,451 123,207 556,296 774,332 100,17 541,51 629,41 173,-18 602,-1 782,-186 56,-58 22,-156 16,-232 -7,-79 -20,-166 -31,-245 -23,-158 -51,-319 -77,-476 -24,-144 -63,-341 -71,-482 -9,-165 -44,-301 86,-439 211,-225 401,-296 674,-431 -111,-168 -179,-253 -267,-438l-29 -62c-1,-1 -2,-5 -4,-8 -539,312 -473,46 -655,118 -183,72 -558,175 -743,153 -192,-22 -222,-221 -222,-386 -82,43 -118,-32 -440,223 -66,52 -113,111 -173,158 -36,28 -170,130 -188,158z"/>
   <path fill="#fff" d="M3021 8180l-28 484c21,357 123,701 210,1047l55 221c1,4 8,30 9,33l12 29c1,2 3,6 5,9 152,25 324,60 471,-13 77,-39 83,-51 83,-138 0,-280 -14,-792 39,-1052 11,-54 33,-128 39,-175 -47,-48 -209,-165 -195,-229 59,-13 152,117 195,160 84,84 128,130 128,259l56 538c33,165 162,456 230,627 21,52 41,94 61,146 11,26 22,55 31,79l31 65c19,32 385,84 546,-43 110,-88 80,-143 80,-279 0,-419 -12,-1019 30,-1421 11,-100 27,-230 26,-334 -1,-72 1,-103 10,-170 10,-72 -11,-100 -11,-175 -51,12 -85,39 -136,57 -402,145 -1093,112 -1516,7 -242,-60 -357,-145 -420,-160 0,135 -42,314 -41,428z"/>
   <path fill="#000" d="M4665 10915c-46,65 -120,55 -193,55 -58,0 -146,-31 -202,-47 -174,-49 -142,-21 -144,-91 78,52 111,70 207,83 64,9 27,9 63,21 69,23 208,-49 269,-21zm-462 -87c-5,-1 -38,-20 -37,-26l16 -12c28,18 -3,14 55,14 -12,30 18,34 -34,23zm-850 -92c69,48 180,60 277,56 96,-4 160,-43 235,-97 -49,205 -269,188 -405,129 -16,-7 -122,-72 -122,-76l16 -12zm1506 -14c66,-47 75,-156 168,-164l-157 180 -12 -16zm-673 52c-81,-102 93,-181 111,-180 25,64 0,182 -111,180zm-321 -162c-6,57 -46,74 -124,97 -200,59 -339,82 -456,-97 74,18 56,46 112,53 90,11 2,-38 94,31l206 -33c44,5 39,39 102,8 36,-17 34,-36 66,-59zm262 304c162,82 394,132 567,42 76,-40 131,-98 189,-156 47,-47 123,-167 155,-190 -33,142 -231,380 -354,447 -115,63 -370,67 -494,1 -76,-41 -64,-63 -64,-143zm-415 -442c2,-43 34,-86 58,-121 68,73 75,217 -30,245l1 10c0,1 0,7 -1,8 -4,6 33,18 -18,-1l-11 -142zm-400 -262c335,168 318,173 359,345 -29,9 12,11 -41,-28 28,118 -16,4 -7,82 3,30 48,-25 2,10 0,0 -5,4 -36,5 0,-94 7,-70 -28,-138 -66,34 -29,-6 -38,43 -2,13 -4,57 -4,81l-41 0c0,-79 10,-96 -29,-139 -39,29 -42,46 -50,87 -8,40 15,41 9,53 -89,-67 -2,-89 -59,-165 -52,26 -37,5 -37,81l-14 0 14 -318zm981 608c35,-146 121,-167 247,-209 155,-52 214,-67 389,-67 -47,72 -187,311 -264,317l30 -96c-48,4 -73,47 -123,84 -27,-43 15,-37 -28,-71 -46,18 -26,42 -56,57l-15 4c-43,19 19,21 -68,23 23,-46 83,-99 74,-143 -49,-11 -56,23 -88,60 -29,35 -51,40 -97,42zm235 -470c99,2 167,27 283,6 73,-13 152,-40 215,-76 0,104 36,137 -45,217 -51,5 -105,-16 -175,-10 -49,4 -114,21 -161,33 -101,25 -185,56 -282,105l-13 -83c114,-101 177,-65 180,-193zm-166 111c30,-61 56,-117 124,-124 -18,75 -47,103 -124,124zm-691 -387c0,163 110,203 4,328 -68,-40 -116,-81 -173,-131 -86,-74 -146,-71 -188,-101l12 -97c179,0 110,35 345,0zm-649 -1893c0,-115 41,-293 41,-428 63,15 178,100 420,160 423,106 1114,139 1516,-7 51,-18 85,-45 136,-57 0,75 20,104 11,175 -9,67 -11,98 -10,170 1,104 -15,234 -26,334 -42,401 -30,1002 -30,1421 0,136 30,191 -80,279 -161,128 -527,76 -546,43l-31 -65c-10,-24 -21,-53 -31,-79 -21,-51 -41,-94 -61,-146 -68,-170 -196,-461 -230,-627l-56 -538c0,-129 -44,-175 -128,-259 -43,-43 -135,-173 -195,-160 -14,64 147,181 195,229 -7,47 -28,121 -39,175 -53,261 -39,773 -39,1052 0,87 -6,100 -83,138 -146,73 -318,38 -471,13 -2,-3 -4,-7 -5,-9l-12 -29c-1,-3 -8,-29 -9,-33l-55 -221c-87,-346 -189,-691 -210,-1047l28 -484zm-138 -2307c0,-44 19,-130 43,-167 77,63 120,154 330,153 -13,143 -190,631 -193,787 -30,-43 -66,-254 -88,-327 -78,-267 -92,-223 -92,-447zm345 -69c-101,0 -204,-45 -257,-130 -46,-74 -42,-234 22,-285 35,77 38,160 88,243 15,25 48,76 67,99 31,36 56,40 79,73zm-207 -428c18,-27 152,-130 188,-158 61,-47 107,-106 173,-158 322,-255 358,-180 440,-223 0,164 30,363 222,386 185,21 560,-81 743,-153 181,-72 116,194 655,-118 2,2 3,6 4,8l29 62c88,185 156,269 267,438 -272,135 -463,207 -674,431 -129,138 -94,274 -86,439 7,141 47,338 71,482 26,156 54,318 77,476 12,79 24,166 31,245 7,77 41,175 -16,232 -180,184 -609,168 -782,186 -88,9 -529,-25 -629,-41 -218,-36 -651,-125 -774,-332 -37,-63 38,-363 54,-451 37,-207 233,-1158 329,-1329 55,-98 146,-138 147,-406l-55 0c0,246 -39,239 -141,385l-12 17c-100,-76 -230,-286 -261,-416zm1050 -207c-175,0 -221,-169 -221,-318 149,36 49,109 162,225 96,98 223,65 294,65 -3,2 -8,3 -10,4 -2,1 -7,3 -10,4 -80,25 -130,20 -215,20zm440 -85c149,-50 309,-142 332,-58l-455 101 123 -43zm1260 362c-15,-17 -6,-3 -24,-33l-120 -226c-51,-86 -108,-159 -161,-239 70,-98 127,-62 184,9 270,335 330,368 121,489zm-264 -595c-105,53 -183,135 -299,171 -119,38 -286,54 -354,-72 -21,-39 -7,-159 28,-184 10,-8 154,-48 179,-55 96,-27 276,-137 320,-147l125 288zm-1520 55c125,0 30,24 217,-4l608 -121 -33 157c-180,60 -760,334 -792,-32zm1440 -377c64,-55 191,-130 273,-176 104,206 612,659 216,860l-202 -266c55,13 178,53 217,24 -14,-54 -130,-61 -176,-65 -118,-11 -85,-28 -137,-56 -69,-37 -54,17 -94,-72l-97 -249zm729 -646c45,-69 81,-161 167,-192 95,-34 167,-60 264,-81 270,-59 247,192 143,364 -213,350 -636,472 -962,323l286 -280c57,-68 26,-62 85,-94 83,-46 478,-198 559,-168 49,135 -310,419 -489,433 -145,12 -123,-70 -123,-180 -65,47 -49,218 70,234 185,26 375,-135 484,-274 67,-85 119,-147 67,-251 -353,0 -379,118 -553,166zm-2652 -2114c79,-21 249,-282 580,-470 -6,73 -36,129 -42,221 -14,223 -2,67 2,223l330 -278c-57,645 -220,641 -249,746 165,-108 434,-379 676,-498 58,-29 109,-37 172,-63 115,-46 191,-104 298,-158 0,174 -49,416 -124,566 243,-22 373,-237 428,-276 0,251 -57,296 -138,456 36,-10 252,-187 312,-227 92,-62 99,-39 197,-66 104,-28 93,-45 168,-94 27,114 63,222 89,339l77 351c68,-25 63,-135 138,-221 0,201 -4,345 -40,526 -30,152 -66,300 -118,435 -198,512 -238,445 -381,724 46,-12 114,-76 154,-108 92,-74 106,-155 136,-113 -50,44 -133,170 -184,231 -185,222 -446,367 -678,524 -186,126 -1083,359 -1286,316 -244,-53 -291,-222 -399,-416 -465,-836 -303,-740 -299,-1649 1,-123 -14,-255 -14,-386 242,-123 423,-111 663,-111 -42,-58 -290,-72 -373,-70 -207,6 -237,81 -303,125 0,-216 173,-647 265,-745l-58 165zm2791 649c0,-299 -264,-1006 -453,-1288 -67,-100 -244,-300 -251,-329 396,0 368,26 697,284 543,427 557,629 547,1388 -2,138 -92,694 -166,801 0,-46 -5,-87 -11,-127 -9,-64 8,-50 -31,-94 -41,17 -14,-18 -41,56 -20,55 -41,137 -70,179l0 -124c-32,12 -17,3 -37,32 0,0 -17,34 -18,37 -57,120 -313,515 -333,500l-12 -16c194,-222 397,-1061 357,-1421 -9,-83 -41,-410 -96,-487 -60,35 -43,-4 -30,57 31,144 101,281 27,423 -23,44 -40,101 -79,129zm-1975 -442c54,-77 81,-331 96,-443 24,-175 40,-237 147,-378 157,-209 385,-342 600,-464 102,154 221,17 289,149l73 -21c115,133 234,258 332,434 71,127 219,414 231,543 -28,43 -61,66 -108,85 -185,76 -4,-74 -389,178 55,-229 28,-296 45,-397 8,-48 37,-116 49,-172 18,-82 17,-117 17,-204 -110,13 3,162 -152,428 -64,110 -173,231 -304,263 52,-219 58,-255 81,-472 10,-97 0,-51 59,-121 130,-153 207,-443 126,-537 -50,31 -22,-14 -32,51 -18,117 84,408 -419,659 -280,140 -224,40 -572,298 -121,90 -143,151 -170,121zm-953 -97c-158,347 -116,381 -97,746 35,641 -169,979 175,1593 54,96 107,201 162,294 33,55 49,96 75,146 36,70 63,82 99,136 -275,28 -460,268 -661,430 -160,129 -220,90 -224,288 -3,180 -84,298 -69,484 12,149 232,632 178,883 -32,152 -58,315 -84,469 -13,76 -44,166 -22,220 32,80 80,93 121,155 -7,89 -26,204 -38,294 -99,795 7,1046 189,1778l49 200c27,88 11,20 35,62 7,12 7,6 12,30 0,1 3,37 3,39 3,196 -144,231 -63,490 58,184 202,274 386,291 413,39 346,-331 222,-581 -62,-125 28,-140 -65,-226 -23,-22 -12,7 -28,-30 154,-188 167,156 167,-634 0,-140 3,-254 13,-388 5,-67 8,-115 15,-179 7,-62 27,-122 28,-180 31,12 15,-5 31,24l23 184c43,569 45,513 261,1051 38,94 109,295 156,369 -29,33 -45,24 -76,65 -29,37 -27,68 -45,107 -50,106 -161,76 -185,243 -9,63 -111,248 26,349 109,80 385,90 508,47 132,-47 243,-162 318,-276 145,-220 114,-179 116,-437 1,-130 -41,-133 30,-232 43,-61 25,-202 25,-279 0,-363 -25,-827 12,-1177 35,-339 52,-495 44,-828 -2,-84 -18,-73 9,-114 36,-54 39,-43 29,-115l-151 -1039c-89,-532 -117,-622 211,-870 378,-286 711,-249 647,-513 200,-48 213,-315 124,-469 -47,-81 -280,-394 -290,-429 225,53 328,88 565,12 150,-48 288,-155 383,-280 287,-378 124,-706 -409,-436 19,-79 116,-261 166,-318 0,53 -13,121 17,162l117 -288c6,80 32,166 32,250 108,-79 213,-676 231,-819 36,-295 25,-682 -49,-966 -69,-269 -254,-422 -461,-589 -330,-266 -408,-375 -823,-314 -89,13 -31,13 -101,-18 -75,-33 -125,3 -207,-56 -130,-92 -203,-142 -373,-152 -343,-21 -522,34 -824,198 -432,234 -810,870 -820,1294 29,-11 141,-133 152,-152zm-69 -14c13,-143 152,-442 235,-567 103,-154 222,-298 375,-412 165,-123 324,-205 525,-263 139,-40 528,-77 662,40l-300 197c-371,276 -345,458 -442,553 -42,41 -222,194 -267,217 0,-258 131,-554 294,-756 80,-98 149,-144 138,-188 -103,-36 -355,433 -382,496 -25,58 -197,142 -263,193 -84,64 -158,144 -243,199 13,-55 88,-266 116,-312 147,-242 191,-162 165,-245 -94,-9 -272,321 -322,406 -45,78 -79,176 -129,244 -45,62 -114,143 -162,197z"/>
   <path fill="#fff" d="M5728 1881c3,-11 215,-421 221,-428 -3,133 -108,354 -221,428zm-304 -111c0,-139 80,-587 152,-677 0,77 -47,268 -66,348 -17,68 -53,292 -86,329zm-856 -97c70,-295 477,-674 718,-801 -29,44 -151,147 -201,185l-373 387c-35,46 -118,211 -144,229zm-249 304c26,31 49,-31 170,-121 348,-258 292,-158 572,-298 502,-251 401,-542 419,-659 10,-65 -18,-20 32,-51 81,94 4,384 -126,537 -59,70 -49,23 -59,121 -23,216 -29,252 -81,472 131,-32 239,-153 304,-263 156,-266 43,-415 152,-428 0,87 1,122 -17,204 -12,56 -41,124 -49,172 -17,101 11,168 -45,397 385,-252 204,-102 389,-178 47,-19 80,-42 108,-85 -11,-129 -160,-416 -231,-543 -98,-176 -217,-301 -332,-434l-73 21c-68,-133 -187,5 -289,-149 -216,121 -443,255 -600,464 -106,141 -123,203 -147,378 -15,112 -42,366 -96,443z"/>
   <path fill="#fff" d="M6654 2585c-3,57 -5,77 -12,126l-44 219c0,-77 7,-170 17,-245 27,-201 6,-533 -32,-721 -95,-467 -325,-564 -386,-650 219,59 388,458 427,650 34,166 47,314 43,497 -1,59 -12,69 -14,124zm-359 -166c39,-28 56,-85 79,-129 74,-142 4,-279 -27,-423 -13,-61 -30,-22 30,-57 55,77 87,403 96,487 40,360 -163,1199 -357,1421l12 16c21,15 276,-380 333,-500 1,-3 18,-37 18,-37 21,-29 5,-20 37,-32l0 124c29,-42 50,-124 70,-179 26,-74 0,-39 41,-56 38,43 22,30 31,94 5,40 11,81 11,127 75,-107 165,-662 166,-801 9,-759 -4,-961 -547,-1388 -329,-259 -300,-284 -697,-284 8,28 184,229 251,329 189,281 453,989 453,1288z"/>
   <path fill="#fff" d="M3297 1867c48,-54 118,-135 162,-197 49,-69 84,-167 129,-244 50,-86 228,-415 322,-406 26,83 -18,3 -165,245 -28,46 -103,258 -116,312 84,-56 158,-136 243,-199 67,-51 238,-134 263,-193 27,-63 279,-532 382,-496 11,44 -58,90 -138,188 -164,201 -294,498 -294,756 45,-23 224,-176 267,-217 97,-94 71,-277 442,-553l300 -197c-133,-117 -522,-80 -662,-40 -200,57 -360,140 -525,263 -153,115 -272,258 -375,412 -83,124 -222,424 -235,567z"/>
   <path fill="#fff" d="M6156 3884c174,-48 200,-166 553,-166 52,103 0,166 -67,251 -109,139 -299,299 -484,274 -119,-16 -135,-188 -70,-234 0,110 -21,192 123,180 179,-14 538,-298 489,-433 -81,-30 -476,122 -559,168 -59,33 -28,26 -85,94l-286 280c326,148 749,27 962,-323 104,-172 127,-423 -143,-364 -97,21 -169,47 -264,81 -86,31 -122,123 -167,192z"/>
   <path fill="#fff" d="M5428 4530l97 249c40,89 25,34 94,72 52,28 19,46 137,56 47,4 162,11 176,65 -40,29 -163,-11 -217,-24l202 266c396,-201 -113,-654 -216,-860 -82,46 -209,121 -273,176z"/>
   <path fill="#fff" d="M5507 4851l-125 -288c-44,10 -224,120 -320,147 -26,7 -169,48 -179,55 -35,26 -49,145 -28,184 67,126 235,110 354,72 115,-36 193,-118 299,-171z"/>
   <path fill="#000" d="M4554 4340c1,-1 4,2 4,4 0,1 2,2 2,2 0,0 -24,13 -6,-6zm-221 28c-129,0 -283,21 -359,-97 115,27 232,69 359,69l0 28zm-359 -28c-102,-9 -225,-93 -249,-193 68,34 210,134 249,193zm-470 -207l28 0c1,-45 35,-171 59,-204 2,2 3,4 4,8 1,6 7,13 8,16 5,11 11,24 17,37 12,23 23,40 37,60 92,125 8,259 281,340 366,109 606,-140 699,47 -314,74 -803,252 -1013,-244 -21,-49 -26,-118 -51,-156 0,603 670,655 1062,413l41 54c47,-131 -115,-276 -246,-288l129 119c-77,5 -220,-34 -296,-49 -398,-80 -457,-98 -663,-373l56 -98c-147,42 -152,177 -152,318z"/>
   <path fill="#fff" d="M2882 5873c0,224 14,180 92,447 21,73 58,284 88,327 3,-156 181,-644 193,-787 -210,0 -254,-91 -330,-153 -23,37 -43,123 -43,167z"/>
   <path fill="#fff" d="M3988 4906c32,366 612,93 792,32l33 -157 -608 121c-187,28 -92,4 -217,4z"/>
   <path fill="#000" d="M4457 3497c89,61 714,221 843,221 -34,-143 -225,-321 -346,-400 -101,-67 -172,-78 -286,-24 -72,34 -170,112 -211,175 54,-13 116,-70 173,-103 103,-59 117,-49 241,-49 44,184 -97,190 -97,41 -80,53 -54,132 -14,193 -45,-22 -234,-55 -304,-55zm553 111c22,-33 40,-38 54,-71l16 -82c54,41 134,140 150,210l-221 -57z"/>
   <path fill="#fff" d="M4292 10819c45,-1 67,-7 97,-42 32,-37 39,-71 88,-60 10,44 -51,97 -74,143 87,-2 25,-4 68,-23l15 -4c30,-15 10,-38 56,-57 43,35 1,29 28,71 50,-37 75,-80 123,-84l-30 96c78,-6 217,-245 264,-317 -175,0 -233,16 -389,67 -125,42 -212,64 -247,209z"/>
   <path fill="#000" d="M3808 2986c16,32 37,54 23,91 -13,34 -55,43 -86,29 -56,-24 -65,-120 63,-120zm-374 26c64,-109 222,-203 319,-68 -61,86 -97,35 -97,207 -74,-37 -178,-77 -222,-139zm-26 1c95,144 428,303 594,318 0,-151 -123,-325 -224,-425 -160,-159 -284,-63 -370,108z"/>
   <path fill="#fff" d="M4526 10349c-3,128 -66,92 -180,193l13 83c97,-49 181,-80 282,-105 47,-12 112,-29 161,-33 70,-6 125,14 175,10 81,-81 45,-114 45,-217 -63,36 -142,62 -215,76 -116,21 -183,-4 -283,-6z"/>
   <path fill="#fff" d="M5466 4948c53,80 110,153 161,239l120 226c18,30 9,16 24,33 209,-121 149,-154 -121,-489 -57,-71 -114,-107 -184,-9z"/>
   <path fill="#fff" d="M4126 10915c0,81 -12,103 64,143 124,67 378,62 494,-1 123,-67 322,-305 354,-447 -32,23 -108,143 -155,190 -59,58 -113,116 -189,156 -173,90 -405,40 -567,-42z"/>
   <path fill="#fff" d="M3297 10529l14 0c0,-76 -16,-54 37,-81 56,76 -30,97 59,165 6,-12 -17,-14 -9,-53 8,-42 11,-58 50,-87 39,43 29,60 29,139l41 0c0,-25 1,-68 4,-81 9,-49 -28,-9 38,-43 34,68 28,44 28,138 32,-1 36,-5 36,-5 47,-35 2,20 -2,-10 -9,-78 35,36 7,-82 54,38 12,37 41,28 -42,-172 -24,-177 -359,-345l-14 318z"/>
   <path fill="#fff" d="M3312 10170c42,30 102,27 188,101 58,49 105,91 173,131 107,-125 -3,-165 -4,-328 -235,35 -166,0 -345,0l-12 97z"/>
   <path fill="#000" d="M5632 3165c-93,-201 -192,-307 -365,-436 -142,-106 -351,-252 -533,-268 124,189 596,298 842,650 29,41 18,40 56,55z"/>
   <path fill="#000" d="M6599 2931l44 -219c7,-50 9,-69 12,-126 3,-55 13,-65 14,-124 5,-183 -9,-331 -43,-497 -39,-192 -208,-591 -427,-650 61,86 291,183 386,650 38,188 60,520 32,721 -10,75 -17,168 -17,245z"/>
   <path fill="#000" d="M4416 3359c60,-43 46,-163 225,-245 113,-51 291,-49 402,5 234,113 325,298 437,516l-5 -50c-9,-22 -7,-23 -14,-41 -70,-178 -225,-389 -404,-466 -219,-94 -562,-48 -640,281z"/>
   <path fill="#fff" d="M3434 3012c44,62 148,102 222,139 0,-172 36,-121 97,-207 -97,-135 -255,-42 -319,68z"/>
   <path fill="#000" d="M4264 3801c0,289 -106,141 -246,167 -64,12 -40,49 -112,13 -31,-15 -149,-118 -160,-147 -32,-82 52,-141 91,-199 -77,24 -161,127 -132,214 16,47 133,157 179,183 109,60 71,-19 190,-12 305,17 231,-175 192,-218z"/>
   <path fill="#fff" d="M3228 5804c-24,-33 -49,-37 -79,-73 -19,-22 -52,-74 -67,-99 -51,-83 -53,-166 -88,-243 -64,51 -69,211 -22,285 53,85 156,129 257,130z"/>
   <path fill="#000" d="M4568 1673c25,-18 109,-183 144,-229l373 -387c51,-39 173,-141 201,-185 -241,128 -648,506 -718,801z"/>
   <path fill="#fff" d="M4070 5169c85,0 135,5 215,-20 3,-1 8,-3 10,-4 2,-1 7,-2 10,-4 -71,0 -198,33 -294,-65 -113,-116 -13,-189 -162,-225 0,148 46,318 221,318z"/>
   <path fill="#000" d="M3366 2903c29,33 12,0 63,-75 59,-85 137,-190 241,-215 146,96 264,295 345,456l16 -12c-1,-3 -53,-104 -62,-122 -334,-665 -457,-243 -603,-32z"/>
   <path fill="#000" d="M3808 3718c112,-27 155,-84 210,-177 85,-144 87,-315 64,-472 1,3 -2,4 -2,9 -1,8 -14,9 -21,75 -11,95 -24,199 -55,291 -66,196 -161,222 -195,274z"/>
   <path fill="#fff" d="M3352 10736l-16 12c0,4 106,69 122,76 136,59 357,76 405,-129 -75,54 -139,93 -235,97 -97,5 -208,-8 -277,-56z"/>
   <path fill="#000" d="M4250 3621c0,-138 50,-320 95,-444 31,-87 134,-325 140,-399 -60,76 -146,292 -178,388 -35,106 -119,365 -57,454z"/>
   <path fill="#fff" d="M3863 10611c-33,23 -30,42 -66,59 -63,30 -59,-4 -102,-8l-206 33c-92,-69 -4,-20 -94,-31 -56,-7 -38,-35 -112,-53 117,179 256,156 456,97 78,-23 118,-40 124,-97z"/>
   <path fill="#000" d="M5424 1770c33,-37 69,-260 86,-329 20,-81 66,-271 66,-348 -72,89 -152,538 -152,677z"/>
   <path fill="#fff" d="M5010 3608l221 57c-16,-70 -96,-169 -150,-210l-16 82c-14,33 -32,38 -54,71z"/>
   <path fill="#fff" d="M3722 10615c51,19 14,6 18,1 1,-1 0,-6 1,-8l-1 -10c105,-28 98,-172 30,-245 -25,35 -56,78 -58,121l11 142z"/>
   <path fill="#fff" d="M4471 10971c74,0 147,9 193,-55 -61,-28 -200,44 -269,21 -36,-12 1,-12 -63,-21 -96,-13 -129,-32 -207,-83 2,70 -30,42 144,91 55,16 144,47 202,47z"/>
   <path fill="#fff" d="M4185 10774c111,2 136,-115 111,-180 -17,-1 -192,77 -111,180z"/>
   <path fill="#000" d="M5728 1881c113,-75 218,-295 221,-428 -6,8 -218,418 -221,428z"/>
   <path fill="#fff" d="M4333 4367l0 -28c-127,0 -244,-42 -359,-69 77,118 230,97 359,97z"/>
   <path fill="#fff" d="M3974 4340c-39,-59 -181,-159 -249,-193 24,100 147,184 249,193z"/>
   <path fill="#fff" d="M3808 2986c-128,0 -119,97 -63,120 32,13 73,4 86,-29 14,-36 -7,-59 -23,-91z"/>
   <path fill="#fff" d="M4388 5127l455 -101c-23,-84 -183,8 -332,58l-123 43z"/>
   <path fill="#000" d="M3352 3787c84,-60 17,-111 332,-111 -54,-48 -139,-45 -205,-25 -87,26 -107,55 -127,136z"/>
   <path fill="#fff" d="M4361 10460c77,-21 106,-49 124,-124 -69,7 -94,64 -124,124z"/>
   <path fill="#fff" d="M4858 10722l12 16 157 -180c-93,8 -102,116 -168,164z"/>
   <path fill="#fff" d="M4165 10803c-1,6 32,24 37,26 52,11 22,6 34,-23 -58,0 -27,4 -55,-14l-16 12z"/>
  </g>
 </g>
</svg>
