<?xml version="1.0" encoding="UTF-8"?>
<!DOCTYPE svg PUBLIC "-//W3C//DTD SVG 1.1//EN" "http://www.w3.org/Graphics/SVG/1.1/DTD/svg11.dtd">
<!-- Creator: CorelDRAW X6 -->
<svg xmlns="http://www.w3.org/2000/svg" xml:space="preserve" width="8.26772in" height="11.6929in" version="1.1" style="shape-rendering:geometricPrecision; text-rendering:geometricPrecision; image-rendering:optimizeQuality; fill-rule:evenodd; clip-rule:evenodd"
viewBox="0 0 8268 11693"
 xmlns:xlink="http://www.w3.org/1999/xlink">
 <defs>
  <style type="text/css">
   <![CDATA[
    .fil1 {fill:black}
    .fil0 {fill:white}
   ]]>
  </style>
 </defs>
 <g id="Layer_x0020_1">
  <metadata id="CorelCorpID_0Corel-Layer"/>
  <path fill="#fff" d="M5434 2986c138,0 208,70 208,208l-69 -97c4,43 14,49 14,97 0,323 -309,292 -425,325 -66,19 -118,37 -184,52 -103,23 -331,-7 -416,-46 -209,-93 -114,-225 -155,-290 -39,166 -39,28 0,194 -122,-82 -42,-302 153,-347 -13,48 -106,104 -139,153 194,0 407,-52 557,-96 217,-63 286,-71 570,-74l-113 -80zm125 97c47,47 -47,-47 0,0zm-3014 167c0,-185 196,-182 369,-78 36,22 60,42 89,64 35,26 56,37 69,84 -102,-54 -277,-194 -417,-194 0,0 -210,98 47,300 264,207 345,6 383,-22 -10,126 -95,153 -208,153 -141,0 -333,-187 -333,-306zm1222 -458c26,-18 -26,1 36,-20 33,-11 14,-4 48,-8l244 -47c78,-22 146,-52 208,-98 38,-28 14,-23 61,-36 -100,190 -398,208 -597,208zm-97 -111c-194,0 329,-490 708,-236 -68,102 -361,236 -542,236l-167 0zm1708 -222c77,0 93,-28 153,-42 -84,125 -303,100 -361,14 116,27 80,28 208,28zm-361 14c104,0 202,-5 258,173 44,139 0,236 -80,310 -96,89 -170,77 -321,36 -495,-135 -69,-489 130,-505 -109,-95 -125,-186 -125,-389 7,11 7,7 15,27l19 78c8,40 14,63 24,101 19,70 44,114 81,169zm-278 125c-47,-34 -12,0 -38,-59 -93,-218 -200,-235 -282,-357 136,32 315,229 319,417zm-1167 -97c0,-302 515,-659 805,-111 -48,-18 -54,-56 -120,-116l-66 -59c-213,-146 -449,-23 -564,175l-56 111zm1430 -347c0,-112 10,-178 66,-240 72,-80 84,-80 226,-80 -10,7 -7,7 -26,15 -13,5 -21,7 -32,10 -192,54 -175,194 -221,279 -1,2 -5,10 -6,8 -1,-2 -4,5 -6,7zm-1666 -42c29,-109 442,-444 680,-444 252,0 150,23 292,56l0 28c-204,0 -413,44 -560,107 -208,90 -345,248 -413,254zm937 -1029l-7 154c0,124 -379,329 -483,391 -232,139 -330,176 -483,405 -447,671 -162,878 -382,951 -125,42 -252,-26 -387,-26 -304,0 -314,736 264,736 289,0 244,-6 514,-69 99,147 413,352 601,427 261,103 539,141 884,114 368,-29 529,-89 734,-294 335,-335 421,-803 208,-1228 -31,-62 -67,-118 -111,-167 -62,-70 -66,-106 -107,-184 -34,5 -500,95 -500,14 0,-142 126,-278 306,-278 75,0 108,53 153,83 -97,-418 55,-680 -347,-680 -126,0 -200,56 -361,56 19,-83 117,-139 222,-139l0 -28c-260,0 -366,-14 -497,-156 -68,-74 -242,-381 -267,-399l48 318z"/>
  <path fill="#fff" d="M4935 7346c-1008,0 -950,-295 -971,15 -23,334 26,737 53,1070 18,221 71,488 71,693 296,69 170,125 639,125 115,0 282,-70 318,-141 22,-43 100,-305 113,-359l-165 34c47,-38 469,-219 679,-368 46,-33 157,-143 195,-153 -49,184 -440,373 -622,447 -94,38 -67,150 -114,247 164,18 261,27 431,-13 117,-27 97,-42 136,-142 112,-286 391,-987 391,-1248 0,-207 -85,-331 -97,-472 -282,149 -626,264 -1055,264z"/>
  <path fill="#000" d="M4462 11304c-87,0 -186,-58 -222,-111 57,15 129,107 338,19 70,-30 68,-53 120,-88 -1,61 8,37 -23,74 -50,59 -132,107 -213,107zm-125 -292c60,32 25,-4 42,42l-42 0 0 -42zm-69 -28c0,-16 30,-31 21,0 -8,31 35,0 -6,4 -17,2 -15,24 -15,-4zm264 28l97 0c0,-73 0,-21 14,-42 -1,50 -23,111 -83,111 -54,0 -40,-45 -43,-96 -3,-51 -19,-83 -10,-122 7,-27 97,-138 122,-157 25,53 14,161 14,236 -20,6 16,35 -28,-28 -1,63 10,35 -21,63 -18,16 -31,8 -63,35zm-347 -153c-1,-1 4,-4 4,-4l-4 4zm97 -153c169,113 194,149 194,278 0,56 -13,72 -56,83l0 -69 0 -28c0,-74 36,-78 -28,-83 -11,49 -14,46 -14,111 -99,-52 0,-39 -42,-125 -66,27 19,18 -51,60 -18,11 1,6 -33,9 15,-64 19,-29 1,-96 -10,-38 6,-96 27,-140zm-83 111c-1,-1 4,-4 4,-4l-4 4zm14 -42c-1,-1 4,-4 4,-4l-4 4zm486 -139c0,93 18,354 -9,422 -32,81 -301,258 -452,53 -39,-52 -67,-109 -67,-197l98 124c89,72 -2,47 118,65 68,10 63,5 103,-22 67,100 194,10 194,-83l-8 -242c-11,-68 -18,-89 22,-119zm1055 125c43,-37 57,-21 75,-64 14,-32 8,-77 8,-117 146,34 137,181 -83,181zm0 -125c-18,-14 28,-14 -42,-14l0 -14c15,0 61,8 58,16l-16 12zm-69 125c-304,0 -542,-131 -694,-167 20,-115 493,153 694,153l0 14zm-1014 -181c0,-39 8,0 9,0 14,4 -9,35 -9,0zm278 -14l0 0zm861 14c-130,-3 -119,-38 -125,-56 148,34 91,-9 125,56zm-1022 8c-74,-29 -91,-76 -91,-80l67 21c248,131 638,273 908,273 146,0 152,11 278,-56 -72,307 -971,-83 -1161,-158zm78 -50c-1,-1 4,-4 4,-4l-4 4zm222 -14c260,-61 280,-50 542,-28 -23,64 -30,-5 -14,69 98,23 63,36 82,61 38,49 72,24 98,36 -48,72 -82,58 -172,34 -107,-29 -480,-137 -536,-173zm-250 0c-1,-1 4,-4 4,-4l-4 4zm-83 -139c3,38 5,48 24,73 37,48 68,26 31,52 -2,-2 -6,-5 -7,-6 -2,-1 -5,-5 -8,-6l-45 -24c-26,-14 -31,-19 -54,-35l59 -52zm948 107c0,-2 -3,6 -4,4l4 -4zm-32 4c-1,-1 4,-4 4,-4l-4 4zm-111 -139c-39,-53 5,-4 -74,-51 -17,-10 -14,-10 -23,-18 30,7 33,8 61,23 69,37 55,33 37,47zm-139 -69c-23,-23 16,-7 16,-7 34,-12 -2,22 -16,7zm-1180 -819c-7,-46 14,-150 13,-215 130,19 368,78 485,49l16 180c11,250 -153,688 -153,833 0,76 127,308 -129,490l-173 -170 52 -292c28,7 180,75 222,-42 -115,10 -86,49 -203,13l-130 -846zm468 898c-25,14 -23,12 -51,18 -11,-130 -35,-24 28,-278 36,-148 111,-456 111,-597 0,-80 -14,-116 -14,-208l28 0c0,208 0,417 0,625 0,174 15,128 -30,276 -26,87 -5,127 -72,164zm143 -1079c144,-69 247,-73 264,-278 196,0 69,32 375,0 -6,72 -175,561 -209,638 -156,355 -93,524 -305,542l0 42c218,-51 140,-77 346,43 113,66 205,92 306,182l-153 -16c-271,-14 -279,19 -455,72 -65,19 -225,-38 -225,-141 0,-130 41,-167 54,-252l2 -831zm83 -1944c430,0 773,-114 1055,-264 12,141 97,266 97,472 0,261 -279,962 -391,1248 -39,100 -19,114 -136,142 -171,40 -268,31 -431,13 47,-97 20,-209 114,-247 182,-74 573,-263 622,-447 -38,10 -148,120 -195,153 -210,148 -632,330 -679,368l165 -34c-13,55 -91,316 -113,359 -36,70 -203,141 -318,141 -469,0 -343,-56 -639,-125 0,-205 -53,-471 -71,-693 -27,-333 -75,-736 -53,-1070 21,-310 -37,-15 971,-15zm-139 -208c228,0 431,-28 633,-61 343,-57 399,-129 534,-161 10,120 176,151 -458,306 -265,64 -468,69 -750,69 -400,0 -550,-79 -764,-97 4,-181 87,-107 212,-87 254,39 344,32 593,32zm14 -1444c37,0 155,-60 198,-80 110,-49 63,-52 182,-9 132,48 290,61 453,75 0,373 306,601 306,930 0,242 14,253 -158,314 -276,98 -644,158 -953,158 -171,0 -656,8 -777,-70 -191,-122 -85,-811 -70,-986 8,-93 -50,-321 -69,-403 57,5 104,23 175,34 50,7 155,36 173,36 225,0 68,-83 227,-35 136,41 178,35 314,35zm-547 -147c41,28 67,52 117,64l-97 42c-54,0 -123,-79 -125,-181 39,26 65,47 105,75zm881 -6c80,-19 317,-153 397,-200 196,-116 246,-8 367,-188 109,52 265,53 244,214 -20,147 -47,253 -202,259 -183,7 -731,19 -806,-84zm306 -680c241,0 528,161 625,307l-152 -30 0 -42c-81,55 -184,193 -222,139 49,-33 78,-29 83,-97l-472 278c-355,177 -554,347 -931,153 -41,-21 -222,-141 -222,-181 0,-110 120,-257 200,-300 166,-91 286,78 356,78 59,0 620,-264 805,-264 -16,-40 9,-28 -69,-28l0 -14zm-1944 236c0,-217 155,-347 375,-347 209,0 194,26 323,121 46,34 207,127 218,170 -150,3 -449,259 -278,583 -121,-3 -338,-95 -426,-143 -123,-67 -213,-211 -213,-385zm2625 69c-2,-2 -5,-6 -7,-7l-18 -23c-92,-128 -106,-96 -142,-150 65,15 113,55 167,83l0 97zm-194 -181c-1,-1 4,-4 4,-4l-4 4zm-1222 -292c183,0 238,-42 366,-92 71,-28 119,-14 189,-47 52,-24 90,-56 167,-56 191,0 307,48 413,156 26,27 256,285 242,305l-16 12c-80,-70 -172,-20 -282,-65 -90,-36 -152,-74 -273,-74 0,-86 5,-194 -66,-235l24 235c-117,0 -136,24 -206,71 -52,35 -126,51 -183,81 -172,-325 -615,-249 -539,52l-447 -274c12,-144 269,-69 403,-69l208 0zm680 194c-1,-1 4,-4 4,-4l-4 4zm-805 28c25,-92 311,-195 458,83 -35,18 -299,149 -331,113 -35,-39 104,-58 -16,-58 -57,0 7,24 -111,14l194 -111c-94,0 -152,18 -208,56 23,-86 116,-39 140,-122l-126 24zm-292 -278c-5,-212 -185,-402 -209,-465 558,74 452,68 1029,6 -31,132 -69,233 -69,403 -110,26 -155,83 -319,83 -247,4 -168,5 -431,-28zm-1222 -903c290,-67 199,-36 395,119 160,127 312,191 355,228 -278,0 -647,-207 -750,-347zm2028 -1486c0,-88 19,-77 69,-111 48,32 96,73 111,139l-69 0c-3,-38 -7,-38 -14,-69 -54,40 -13,60 -97,42zm361 -2l-111 16c-25,4 -27,-37 -38,-59 -35,-69 -139,-121 -45,-121 107,0 185,46 194,164zm-398 -904c0,-2 -3,6 -4,4l4 -4zm-2726 740c0,-912 733,-1708 1653,-1708 474,0 937,337 1232,629 36,35 294,295 298,318l-16 12c-92,-126 -607,-262 -782,-356 -364,-195 -304,-414 -634,-491 0,194 135,396 139,555l-1061 647c-237,153 -476,425 -614,677 -40,73 -106,218 -150,274l-63 -556zm167 819c-89,-186 -96,-230 -30,-336 63,-104 107,-195 179,-293 402,-540 509,-520 1023,-865 98,-66 190,-118 292,-180 175,-105 272,-208 272,-62 0,261 -666,443 -881,716 -437,555 -366,931 -396,993 -59,122 -268,49 -459,27zm1770 -1820l-48 -318c25,18 199,325 267,399 131,142 236,156 497,156l0 28c-106,0 -203,56 -222,139 161,0 235,-56 361,-56 402,0 250,263 347,680 -45,-30 -78,-83 -153,-83 -180,0 -306,135 -306,278 0,81 466,-9 500,-14 42,79 45,115 107,184 44,49 80,105 111,167 214,426 128,893 -208,1228 -205,205 -366,265 -734,294 -345,27 -623,-10 -884,-114 -188,-75 -502,-279 -601,-427 -270,63 -225,69 -514,69 -578,0 -568,-736 -264,-736 134,0 262,68 387,26 220,-73 -65,-280 382,-951 153,-229 252,-267 483,-405 104,-62 483,-268 483,-391l7 -154zm-118 -430c0,-39 8,0 9,0 14,4 -9,35 -9,0zm392 511c-105,-116 -203,-293 -280,-428 -148,-257 -45,-51 -126,-152 -1,-1 -17,-24 -16,-30l16 -12c86,60 108,42 181,139 52,69 83,108 149,171 369,351 1156,341 1156,732 0,145 -1,326 -125,417 0,-113 -22,-217 -28,-333 -6,-107 -51,-193 -114,-247 -266,-228 -635,-60 -813,-257zm-2253 947c0,273 79,622 167,805 -269,72 -236,558 -9,731 120,91 295,112 509,100 71,-4 43,-20 94,32 155,160 486,345 725,345 142,0 150,-70 311,161 58,83 144,226 147,353 -128,0 -91,6 -171,52 -60,35 -116,3 -204,3 -236,0 -417,143 -417,375l0 97c0,201 234,415 417,431 3,118 80,290 69,417 -20,247 -120,891 83,1028 -219,326 -54,1113 -26,1457 11,138 23,312 38,448 22,214 -25,237 197,289 -136,283 221,989 38,1315 -413,734 253,957 450,672 46,-67 12,-466 12,-613 148,78 1264,541 1264,111 0,-138 -84,-144 -163,-198 -65,-44 -6,-34 -97,-69 -140,-54 -62,-191 -311,-217 -134,-14 -175,-42 -261,-100 40,-83 76,-242 109,-335 40,-111 83,-205 122,-323 39,-118 74,-216 111,-333 23,-72 14,-125 74,-149 77,-31 103,0 141,-82 97,-208 430,-1104 430,-1362 0,-172 -56,-298 -88,-439 -23,-99 -12,-123 -47,-217 -31,-81 -3,-140 -3,-260 0,-398 -306,-584 -306,-972 281,0 468,11 492,-326 3,-42 0,-54 -20,-91 -42,-80 -14,8 -14,-138 0,-231 -281,-667 -694,-667 -170,0 -186,97 -361,111 0,-105 36,-374 126,-416 162,-75 214,-97 336,-220 424,-424 464,-1064 84,-1507 -42,-49 -137,-280 -120,-352 30,-130 144,-46 144,-464 0,-304 -516,-730 -716,-881 -311,-235 -668,-437 -1205,-360 -815,117 -1453,835 -1453,1754z"/>
  <path fill="#fff" d="M4810 5694c-136,0 -178,6 -314,-35 -159,-48 -2,35 -227,35 -18,0 -122,-28 -173,-36 -70,-10 -117,-29 -175,-34 19,82 77,309 69,403 -15,175 -121,864 70,986 122,78 607,70 777,70 310,0 678,-59 953,-158 172,-61 158,-72 158,-314 0,-329 -306,-557 -306,-930 -163,-14 -321,-26 -453,-75 -118,-43 -71,-40 -182,9 -43,19 -161,80 -198,80z"/>
  <path fill="#fff" d="M2338 2083l63 556c45,-56 110,-201 150,-274 139,-252 377,-524 614,-677l1061 -647c-4,-159 -139,-362 -139,-555 330,77 270,296 634,491 176,94 690,231 782,356l16 -12c-4,-23 -262,-283 -298,-318 -295,-291 -759,-629 -1232,-629 -920,0 -1653,796 -1653,1708z"/>
  <path fill="#fff" d="M5448 4874c79,0 53,-12 69,28 -186,0 -746,264 -805,264 -69,0 -190,-169 -356,-78 -79,43 -200,190 -200,300 0,40 181,160 222,181 377,194 576,24 931,-153l472 -278c-6,68 -34,64 -83,97 38,54 141,-84 222,-139l0 42 152 30c-96,-146 -384,-307 -625,-307l0 14z"/>
  <path fill="#fff" d="M2504 2902c191,22 400,95 459,-27 30,-62 -41,-438 396,-993 215,-273 881,-455 881,-716 0,-146 -97,-43 -272,62 -103,62 -194,114 -292,180 -515,345 -621,325 -1023,865 -73,98 -116,189 -179,293 -65,106 -59,150 30,336z"/>
  <path fill="#fff" d="M4851 9290l-2 831c-12,85 -54,122 -54,252 0,103 161,160 225,141 176,-52 184,-86 455,-72l153 16c-101,-90 -193,-116 -306,-182 -206,-120 -129,-93 -346,-43l0 -42c212,-18 149,-187 305,-542 34,-77 203,-566 209,-638 -306,32 -179,0 -375,0 -17,205 -120,209 -264,278z"/>
  <path fill="#fff" d="M4476 9638c-84,0 -159,-21 -194,-69 79,2 115,28 208,28 116,0 85,-8 153,-14 -41,61 -88,56 -167,56zm-236 -167l130 846c117,36 88,-3 203,-13 -42,117 -194,48 -222,42l-52 292 173 170c256,-182 129,-415 129,-490 0,-145 164,-583 153,-833l-16 -180c-117,30 -355,-30 -485,-49 1,65 -20,169 -13,215z"/>
  <path fill="#fff" d="M3504 5097c0,174 90,318 213,385 88,48 306,140 426,143 -172,-325 127,-580 278,-583 -12,-44 -172,-136 -218,-170 -129,-96 -114,-121 -323,-121 -220,0 -375,130 -375,347z"/>
  <path fill="#fff" d="M4712 4694l-208 0c-134,0 -391,-74 -403,69l447 274c-76,-301 367,-377 539,-52 57,-30 131,-47 183,-81 70,-47 89,-71 206,-71l-24 -235c71,41 66,149 66,235 121,0 183,38 273,74 111,44 202,-5 282,65l16 -12c14,-19 -215,-278 -242,-305 -107,-108 -223,-156 -413,-156 -76,0 -115,32 -167,56 -71,33 -118,19 -189,47 -128,50 -183,92 -366,92z"/>
  <path fill="#fff" d="M4296 4638c262,33 183,32 431,28 165,0 210,-58 319,-83 0,-170 39,-271 69,-403 -577,61 -471,68 -1029,-6 24,63 205,253 209,465z"/>
  <path fill="#fff" d="M4127 553c-1,6 15,28 16,30 81,102 -22,-104 126,152 78,135 175,312 280,428 178,197 547,29 813,257 63,54 109,140 114,247 6,116 28,220 28,333 124,-91 125,-271 125,-417 0,-391 -787,-381 -1156,-732 -65,-62 -96,-101 -149,-171 -73,-96 -94,-78 -181,-139l-16 12z"/>
  <path fill="#fff" d="M4796 7138c-249,0 -339,8 -593,-32 -126,-19 -208,-94 -212,87 214,18 364,97 764,97 282,0 485,-5 750,-69 634,-154 468,-186 458,-306 -135,31 -190,104 -534,161 -202,33 -405,61 -633,61z"/>
  <path fill="#fff" d="M5143 5541c75,103 623,91 806,84 155,-6 182,-112 202,-259 22,-161 -135,-162 -244,-214 -121,180 -171,72 -367,188 -80,47 -316,182 -397,200z"/>
  <path fill="#000" d="M4782 3361l42 0 0 14 -42 0 0 -14zm69 -14c96,0 151,-26 235,-43 62,-12 165,-41 237,-41l0 14c-120,0 -314,83 -472,83l0 -14zm56 194c-98,0 -223,-15 -292,-41 -98,-37 -141,-72 -166,-181 41,11 73,38 126,54 165,51 296,21 479,-4 473,-66 351,-128 492,-231 8,339 -180,283 -417,347 -65,17 -148,56 -222,56zm-444 -278c224,0 355,-32 526,-85 371,-115 367,-44 529,-82 -34,126 -195,113 -330,142 -92,20 -282,94 -364,94 -89,0 -307,-35 -361,-69zm1097 -181c-47,-47 47,47 0,0zm-12 -17c-284,3 -353,12 -570,74 -150,43 -364,96 -557,96 33,-49 126,-105 139,-153 -195,45 -275,266 -153,347 -39,-166 -39,-28 0,-194 41,65 -54,196 155,290 86,38 313,68 416,46 66,-15 118,-33 184,-52 116,-34 425,-2 425,-325 0,-48 -10,-54 -14,-97l69 97c0,-139 -70,-208 -208,-208l113 80z"/>
  <path fill="#fff" d="M4921 2944c0,-38 2,-66 10,-87 16,-40 13,-34 59,-38 0,77 -8,109 -69,125zm292 -97c-49,-13 -119,-73 -28,-97 30,22 16,10 38,73 1,2 2,7 4,10 2,-89 23,-98 -18,-191 -96,-220 -360,-74 -424,-15 -223,207 -10,284 213,351 69,21 84,30 135,-16 35,-31 67,-69 79,-116z"/>
  <path fill="#fff" d="M4907 3541c74,0 157,-38 222,-56 237,-64 424,-8 417,-347 -140,103 -19,165 -492,231 -183,26 -314,56 -479,4 -53,-16 -86,-44 -126,-54 26,110 69,144 166,181 69,26 195,41 292,41z"/>
  <path fill="#000" d="M3782 2569c3,37 7,38 14,69 -42,-1 -51,-6 -83,-14 24,-35 24,-43 69,-56zm97 -83c0,134 20,56 42,139l-69 0c-14,-58 -26,-38 -28,-111 41,-12 22,-5 56,-28zm83 -14c0,-33 113,-42 153,-42 44,92 45,130 -56,139 19,-39 14,-27 14,-83 -28,18 -51,47 -111,14l0 -28zm236 42c-8,-33 -13,-41 -13,-85l83 16c-12,44 -1,24 -69,69zm-528 167l167 0c181,0 473,-134 542,-236 -379,-254 -903,236 -708,236z"/>
  <path fill="#000" d="M5212 2847c-13,47 -45,84 -79,116 -51,46 -66,37 -135,16 -224,-67 -436,-144 -213,-351 64,-60 327,-205 424,15 40,92 20,102 18,191 -2,-3 -3,-8 -4,-10 -22,-63 -8,-51 -38,-73 -91,24 -21,84 28,97zm-208 -361c-199,17 -625,370 -130,505 152,41 226,53 321,-36 80,-74 124,-171 80,-310 -56,-177 -154,-173 -258,-173 -37,-56 -62,-99 -81,-169 -10,-38 -16,-61 -24,-101l-19 -78c-8,-20 -7,-16 -15,-27 0,202 16,294 125,389z"/>
  <path fill="#fff" d="M4462 3263c54,34 273,69 361,69 83,0 272,-74 364,-94 135,-29 296,-16 330,-142 -162,38 -159,-34 -529,82 -171,53 -302,85 -526,85z"/>
  <path fill="#fff" d="M3074 3736c103,140 472,347 750,347 -43,-37 -195,-101 -355,-228 -196,-155 -105,-187 -395,-119z"/>
  <path fill="#000" d="M3337 2111c68,-6 205,-164 413,-254 147,-63 356,-107 560,-107l0 -28c-141,-33 -40,-56 -292,-56 -239,0 -651,335 -680,444z"/>
  <path fill="#fff" d="M4587 4916l126 -24c-24,83 -116,35 -140,122 56,-37 115,-56 208,-56l-194 111c118,10 54,-14 111,-14 120,0 -19,19 16,58 32,36 296,-95 331,-113 -147,-278 -434,-175 -458,-83z"/>
  <path fill="#fff" d="M5087 10526c56,35 429,144 536,173 90,24 124,38 172,-34 -26,-12 -60,13 -98,-36 -20,-26 15,-39 -82,-61 -16,-74 -9,-5 14,-69 -261,-22 -281,-33 -542,28z"/>
  <path fill="#fff" d="M4796 9513c0,141 -75,449 -111,597 -62,254 -38,148 -28,278 28,-7 26,-5 51,-18 67,-37 46,-77 72,-164 44,-148 30,-102 30,-276 0,-208 0,-417 0,-625l-28 0c0,93 14,128 14,208z"/>
  <path fill="#fff" d="M4696 10510c0,5 17,51 91,80 190,75 1090,465 1161,158 -126,67 -132,56 -278,56 -270,0 -660,-142 -908,-273l-67 -21z"/>
  <path fill="#fff" d="M4171 10915c0,88 28,145 67,197 151,205 420,28 452,-53 26,-68 9,-328 9,-422 -41,30 -34,51 -22,119l8 242c0,93 -127,183 -194,83 -41,27 -35,32 -103,22 -119,-18 -29,7 -118,-65l-98 -124z"/>
  <path fill="#000" d="M2546 3250c0,119 192,306 333,306 113,0 198,-27 208,-153 -38,28 -120,229 -383,22 -257,-202 -48,-300 -47,-300 140,0 315,141 417,194 -13,-47 -34,-58 -69,-84 -30,-22 -53,-42 -89,-64 -173,-104 -369,-108 -369,78z"/>
  <path fill="#000" d="M3574 2500l56 -111c114,-199 350,-321 564,-175l66 59c66,61 71,99 120,116 -290,-548 -805,-191 -805,111z"/>
  <path fill="#fff" d="M4393 10887c64,6 28,10 28,83l0 28 0 69c43,-11 56,-27 56,-83 0,-129 -25,-164 -194,-278 -21,44 -37,102 -27,140 18,67 14,32 -1,96 34,-3 14,2 33,-9 69,-43 -15,-34 51,-60 41,86 -57,73 42,125 0,-65 2,-62 14,-111z"/>
  <path fill="#fff" d="M4532 11012c31,-27 44,-18 63,-35 30,-27 19,0 21,-63 44,63 8,34 28,28 0,-75 11,-183 -14,-236 -25,18 -115,130 -122,157 -10,39 7,71 10,122 3,51 -11,96 43,96 60,0 82,-61 83,-111 -14,21 -14,-32 -14,42l-97 0z"/>
  <path fill="#fff" d="M4990 10596c152,35 390,167 694,167l0 -14c-201,0 -675,-268 -694,-153z"/>
  <path fill="#fff" d="M5351 2264l111 -16c-10,-118 -87,-164 -194,-164 -93,0 11,52 45,121 11,23 13,64 38,59z"/>
  <path fill="#000" d="M3768 2791c199,0 497,-18 597,-208 -47,13 -24,8 -61,36 -62,46 -130,75 -208,98l-244 47c-34,4 -15,-3 -48,8 -62,20 -9,2 -36,20z"/>
  <path fill="#fff" d="M4462 11304c81,0 163,-47 213,-107 31,-37 22,-13 23,-74 -52,35 -50,58 -120,88 -209,88 -281,-3 -338,-19 36,54 135,111 222,111z"/>
  <path fill="#000" d="M4740 2597c-4,-188 -184,-385 -319,-417 82,122 188,140 282,357 25,59 -9,25 38,59z"/>
  <path fill="#000" d="M5004 2152c2,-2 6,-9 6,-7 1,2 5,-6 6,-8 45,-85 29,-225 221,-279 11,-3 19,-4 32,-10 19,-8 16,-8 26,-15 -142,0 -154,-1 -226,80 -55,62 -66,128 -66,240z"/>
  <path fill="#fff" d="M4282 5652l97 -42c-50,-12 -76,-35 -117,-64 -41,-28 -67,-49 -105,-75 2,101 71,181 125,181z"/>
  <path fill="#fff" d="M3962 2472l0 28c60,34 83,5 111,-14 0,56 5,45 -14,83 101,-8 99,-47 56,-139 -40,0 -153,9 -153,42z"/>
  <path fill="#fff" d="M5754 10763c220,0 229,-147 83,-181 0,39 5,85 -8,117 -18,42 -32,26 -75,64z"/>
  <path fill="#fff" d="M5171 2194c-1,-1 4,-4 4,-4l-4 4zm-69 56c84,18 43,-2 97,-42 7,32 11,32 14,69l69 0c-15,-66 -63,-106 -111,-139 -51,34 -69,23 -69,111z"/>
  <path fill="#000" d="M4476 9638c78,0 126,5 167,-56 -67,6 -37,14 -153,14 -93,0 -129,-26 -208,-28 36,49 110,69 194,69z"/>
  <path fill="#000" d="M5379 2458c-129,0 -92,-1 -208,-28 58,87 277,111 361,-14 -60,14 -76,42 -153,42z"/>
  <path fill="#fff" d="M6129 5166l0 -97c-54,-29 -101,-68 -167,-83 36,54 50,22 142,150l18 23c1,2 4,5 7,7z"/>
  <path fill="#fff" d="M4851 3347l0 14c158,0 352,-83 472,-83l0 -14c-72,0 -176,28 -237,41 -84,17 -139,43 -235,43z"/>
  <path fill="#fff" d="M3824 2514c2,73 14,53 28,111l69 0c-22,-83 -42,-4 -42,-139 -34,23 -14,16 -56,28z"/>
  <path fill="#000" d="M4921 2944c62,-16 69,-48 69,-125 -46,4 -44,-2 -59,38 -8,21 -10,49 -10,87z"/>
  <path fill="#fff" d="M4695 10440c23,16 28,22 54,35l45 24c2,1 6,5 8,6 2,1 5,4 7,6 37,-26 6,-4 -31,-52 -19,-25 -21,-35 -24,-73l-59 52z"/>
  <path fill="#fff" d="M4198 2514c68,-46 58,-25 69,-69l-83 -16c0,44 6,53 13,85z"/>
  <path fill="#fff" d="M5809 10582c-34,-65 23,-21 -125,-56 6,18 -5,53 125,56z"/>
  <path fill="#fff" d="M3712 2625c33,8 41,13 83,14 -7,-32 -11,-32 -14,-69 -46,12 -46,20 -69,56z"/>
  <path fill="#fff" d="M5559 10360c18,-14 32,-10 -37,-47 -28,-15 -31,-16 -61,-23 10,8 7,8 23,18 78,47 35,-2 74,51z"/>
  <path fill="#fff" d="M4379 11054c-16,-45 18,-10 -42,-42l0 42 42 0z"/>
  <path fill="#fff" d="M5712 10624c70,0 24,0 42,14l16 -12c3,-8 -43,-16 -58,-16l0 14z"/>
  <polygon fill="#fff" points="4782,3375 4823,3375 4823,3361 4782,3361 "/>
  <path fill="#fff" d="M5421 10290c14,14 50,-20 16,-7 0,0 -39,-16 -16,7z"/>
  <path fill="#fff" d="M4268 10985c0,28 -2,6 15,4 42,-4 -2,27 6,-4 8,-31 -21,-16 -21,0z"/>
  <path fill="#fff" d="M4671 10582c0,35 22,4 9,0 0,0 -9,-39 -9,0z"/>
  <path fill="#fff" d="M4157 653c0,35 22,4 9,0 0,0 -9,-39 -9,0z"/>
  <path fill="#fff" d="M5698 10499c1,1 4,-6 4,-4l0 0c0,0 -6,3 -4,4z"/>
  <path fill="#fff" d="M5060 1347c1,1 4,-6 4,-4l0 0c0,0 -6,3 -4,4z"/>
  <path fill="#fff" d="M4865 10540l4 -4c0,0 -6,3 -4,4z"/>
  <path fill="#fff" d="M5934 4985l4 -4c0,0 -6,3 -4,4z"/>
  <path fill="#fff" d="M5671 10499l4 -4c0,0 -6,3 -4,4z"/>
  <path fill="#000" d="M5171 2194l4 -4c0,0 -6,3 -4,4z"/>
  <path fill="#fff" d="M5393 4888l4 -4c0,0 -6,3 -4,4z"/>
  <path fill="#fff" d="M4212 10776l4 -4c0,0 -6,3 -4,4z"/>
  <path fill="#fff" d="M4837 10526l4 -4c0,0 -6,3 -4,4z"/>
  <path fill="#fff" d="M4198 10818l4 -4c0,0 -6,3 -4,4z"/>
  <path fill="#fff" d="M4185 10860l4 -4c0,0 -6,3 -4,4z"/>
  <line fill="#fff" x1="4948" y1="10568" x2="4948" y2= "10568" />
 </g>
</svg>
