<?xml version="1.0" encoding="UTF-8"?>
<!DOCTYPE svg PUBLIC "-//W3C//DTD SVG 1.1//EN" "http://www.w3.org/Graphics/SVG/1.1/DTD/svg11.dtd">
<!-- Creator: CorelDRAW X6 -->
<svg xmlns="http://www.w3.org/2000/svg" xml:space="preserve" width="8.26772in" height="11.6929in" version="1.1" style="shape-rendering:geometricPrecision; text-rendering:geometricPrecision; image-rendering:optimizeQuality; fill-rule:evenodd; clip-rule:evenodd"
viewBox="0 0 8268 11693"
 xmlns:xlink="http://www.w3.org/1999/xlink">
 <defs>
  <style type="text/css">
   <![CDATA[
    .fil1 {fill:black}
    .fil0 {fill:white}
   ]]>
  </style>
 </defs>
 <g id="Layer_x0020_1">
  <metadata id="CorelCorpID_0Corel-Layer"/>
  <g id="_936443072">
   <path fill="#fff" d="M2368 9174c227,0 650,-79 882,-118 664,-112 444,-53 1061,-53 174,0 828,-292 828,-443 0,-60 -95,-216 -114,-300 -146,168 -342,252 -592,322 -261,73 -546,45 -866,48 -359,4 -1324,326 -1542,1 57,15 125,88 220,109 164,35 757,-60 898,-91 659,-143 1161,75 1722,-278 210,-132 132,-175 26,-407 -65,-141 -378,-841 -381,-962 -264,140 -914,200 -1314,200 -333,0 -723,-112 -943,-229 -83,357 -264,1133 -258,1544 1,104 20,66 10,125 -9,57 -11,107 -10,174 1,198 183,356 372,356z"/>
   <path fill="#000" d="M2782 10688c146,168 271,528 743,528 239,0 243,-23 400,-129 0,155 -139,225 -281,248 -447,72 -469,-41 -686,-309 -104,-128 -176,-201 -176,-338zm57 -357c75,6 71,54 153,50 67,-3 387,-113 497,-116l350 509c-190,101 -165,100 -414,100 -309,0 -455,-414 -571,-500 22,94 160,276 220,351 88,109 176,192 365,192 327,0 278,-88 425,-128l32 271c-82,55 -144,114 -286,114 -297,0 -449,-26 -645,-298 -180,-249 -207,-200 -126,-545zm51 -37c-31,-43 14,40 -7,-22l44 33 -17 12c-2,-2 -15,-16 -20,-23zm120 37c50,-75 477,-214 528,-171 -37,55 -41,54 -114,72 -48,12 -84,20 -138,34 -81,20 -203,59 -277,66zm1100 -600c100,0 231,-27 300,-57 140,-61 96,-85 171,-172 14,172 143,387 143,614 0,115 -82,259 -158,300 -87,47 -280,12 -338,-47 -41,-42 -235,-669 -235,-669l17 -12c21,29 50,43 100,43zm-171 -257c121,32 95,218 313,172 119,-25 233,-140 244,-272 112,82 5,314 -357,314 -173,0 -146,-102 -200,-214zm623 -280c73,105 139,253 164,379 66,330 178,591 -12,805 -174,196 -422,130 -446,39 298,158 500,-39 500,-329 0,-154 -116,-453 -174,-598l-80 -212c1,-29 11,-76 11,-133 11,13 0,-1 19,23 7,10 11,15 18,25zm-1923 -5c129,-30 317,-49 447,-67 89,-13 395,-93 395,-19 -1,327 -53,698 -86,1028 -55,5 -187,52 -245,69 -60,18 -165,96 -184,88 -55,-37 -68,-188 -96,-261 -118,-313 -233,-493 -233,-838zm1671 -143c68,0 140,-21 186,-43 0,281 -39,614 -314,614 -57,0 -509,-461 -400,-571 20,-20 450,0 528,0zm-1942 129c-189,0 -371,-159 -372,-356 0,-68 1,-117 10,-174 9,-60 -9,-22 -10,-125 -6,-410 175,-1187 258,-1544 220,116 610,229 943,229 400,0 1050,-60 1314,-200 3,121 316,821 381,962 106,232 184,274 -26,407 -561,353 -1063,135 -1722,278 -141,31 -733,126 -898,91 -95,-20 -163,-93 -220,-109 218,326 1183,3 1542,-1 320,-3 605,25 866,-48 250,-70 446,-154 592,-322 20,84 114,240 114,300 0,151 -654,443 -828,443 -617,0 -397,-59 -1061,53 -231,39 -654,118 -882,118zm108 -2308c361,125 957,94 1363,94 318,0 449,-27 640,-157l17 171c-623,145 -624,186 -1343,186 -189,0 -900,-145 -900,-257 0,-61 17,-77 29,-129 61,14 114,64 194,91zm520 -506c0,-71 68,-100 143,-100 192,0 514,-22 514,200 83,19 152,57 200,129l-200 28c-215,15 -657,-64 -657,-257zm357 -129c12,-50 36,-146 71,-171 5,60 33,96 68,146l25 32c1,-2 9,5 9,10l-17 12c-3,-2 -7,-4 -10,-5 -2,-1 -7,-3 -10,-4l-138 -20zm1200 -14c11,-45 26,-80 41,-116 15,-38 29,-79 45,-112 34,25 51,62 71,100 -38,72 -47,126 -157,129zm-671 -514c41,-30 44,-63 100,-100 19,40 24,82 33,139l16 113 -149 -151zm-1514 600c265,6 454,-70 584,-244l250 -393c52,-115 78,-13 81,-134l43 0c-184,275 -229,285 -229,700 -80,2 -129,34 -129,114 0,240 478,343 630,321l299 -49c23,-4 130,182 417,-26 121,-88 79,-86 155,-174l0 343c-266,178 -513,171 -943,171 -468,0 -931,-11 -1216,-200l59 -428zm1814 -900c149,0 356,-425 294,-581l177 167c-9,110 -93,362 -138,448 -74,144 -239,219 -248,323 128,30 45,41 -25,103 -52,46 -76,102 -146,142l-80 -446 -152 118 17 -174c4,-64 -10,-80 -15,-126l315 26zm143 314c98,-147 221,-76 343,-600 46,34 171,210 171,286 0,340 -83,406 -100,614l-29 0c-38,-142 -336,-232 -386,-300zm-986 -186c-1,-1 4,-4 4,-4l-4 4zm-1043 -157c-12,-25 -16,-46 -29,-71l71 0c-12,52 -8,46 -43,71zm1557 -43c-12,-145 -122,-167 -157,-214 101,0 96,22 171,29 6,73 32,83 75,125 103,103 95,93 268,4l105 -66c3,-2 14,-6 16,-13 1,-4 5,-9 10,-9l12 17c-13,15 2,-5 -19,24 -168,222 -198,111 -481,105zm-86 243c-33,-142 -168,-157 -339,-156l11 -76 300 32c-52,-70 -152,-57 -271,-57l15 -96 284 53c-73,-108 -201,-82 -300,-86 54,-13 89,-29 157,-29 141,0 214,155 214,300 0,331 -106,130 171,471 48,59 243,338 310,306l-173 -213 238 -227 226 147c-25,109 -132,333 -181,447 -47,107 -234,267 -361,267 -88,0 -295,-202 -354,-261 -128,-128 -174,-189 -260,-350l99 -18c-68,-43 -171,-18 -171,-200 0,-38 44,-216 57,-243 -61,22 -100,175 -100,257 0,71 43,95 43,157 0,67 -51,136 -57,214l-186 0c-71,-303 90,-466 227,-667l101 25c2,69 100,155 143,186l-109 -179 195 51c-36,-136 -139,-62 -300,-100 1,-46 -5,-71 43,-71 260,0 184,17 329,114zm0 0c-1,1 4,4 4,4l-4 -4zm-971 29c0,-233 140,-321 247,-453 77,-95 120,-80 242,-51 127,31 154,39 154,189l-29 0c-20,-84 -99,-141 -200,-143l0 29c124,10 186,90 186,229 -135,-90 -57,-151 -314,-157l0 29c129,3 262,83 271,200l-71 43c-31,-132 -79,-171 -243,-171 71,49 200,38 200,200 0,39 -82,56 -129,57 9,-38 87,-100 -14,-100 -68,0 -121,-6 -157,43l164 3 -22 70 90 27c-11,37 -109,145 -149,213 -47,82 -61,127 -125,204 -81,97 -285,212 -459,212 -210,0 -370,-240 -288,-431 76,-178 159,-391 248,-566l397 112 -29 128c-112,9 -587,247 -572,296 10,35 219,-106 268,-130 74,-37 218,-116 305,-124 0,116 -18,333 71,357 12,-25 -43,-226 -43,-314zm386 -657c57,13 68,29 143,29 1,63 10,44 14,100 -36,-17 -150,-39 -200,-43 27,-40 23,-44 43,-86zm1814 457c0,-135 60,-358 120,-437 153,-202 206,-23 352,-20 0,373 -231,401 -471,457zm-1086 -257c167,-14 407,-217 443,-371l71 0c11,130 63,256 -120,394 -39,30 -215,134 -266,134 -34,0 -119,-117 -129,-157zm-414 0c-59,-21 -2,26 -66,-105 -21,-44 -37,-62 -48,-109 54,40 99,148 114,214zm-1214 114c62,-92 264,-281 357,-343 -22,95 -22,179 104,239 98,47 130,20 225,18 -38,57 -124,115 -143,186 -79,-18 -133,-65 -241,-88 -80,-17 -201,-12 -302,-12zm1143 -357c37,-69 58,-75 119,-196l38 -62c0,307 88,344 114,443l-171 0c-34,-64 -68,-124 -100,-186zm-814 -14c-1,-1 4,-4 4,-4l-4 4zm2657 -86c17,-32 24,-43 43,-71 64,15 252,84 271,157 -142,75 -292,-56 -314,-86zm-1385 300c-290,0 -257,-378 -257,-671 149,100 147,329 700,329 -77,145 -244,343 -443,343zm-814 -500c0,-15 60,-156 143,0 -2,3 -5,6 -6,8l-13 16c-65,65 -124,27 -124,-24zm71 114c0,-24 35,-25 59,-55 55,-70 -29,-23 149,-165 49,-39 65,-89 124,-71 255,79 -83,506 -189,506 -104,0 -143,-112 -143,-214zm2271 14c42,-63 86,-56 112,-116 46,-107 -19,-62 107,-122l281 -162c-3,150 -85,174 -182,232 -96,58 -29,77 -147,253 -47,-31 -110,-71 -171,-86zm-1814 -271c-41,-11 -96,-61 -114,-86 9,-15 111,-39 114,86zm-23 -127c25,33 -19,3 -20,-2 -13,-35 16,-4 20,2zm-920 13c-1,-1 4,-4 4,-4l-4 4zm500 -243c0,-115 75,-157 186,-157 93,0 82,50 124,161 23,61 63,128 76,181 -114,76 -214,195 -329,271 -10,-123 -57,80 -57,-457zm2757 200c125,-187 118,-145 229,-200 28,-14 58,-28 85,-43 0,128 4,149 -90,196 -65,32 -132,47 -224,47zm-2921 253c116,59 -70,-105 -95,-122 -132,-87 -300,-141 -366,-292 -46,-105 164,-310 311,-310 98,0 200,171 239,247 64,125 23,331 61,410 -66,6 -100,29 -100,100 0,94 57,27 72,157 9,73 43,158 43,172 0,90 -136,229 -257,229 -103,0 -229,-33 -229,-143 0,-192 260,-249 329,-343 -95,-44 -233,186 -386,186 -174,0 -243,-24 -243,-300 0,-245 269,-197 424,-124 85,40 144,107 197,134zm3150 -581c9,-13 11,-18 23,-34 15,-20 12,-14 20,-23 9,41 14,24 14,57 0,17 -88,74 -88,74l-12 -17c2,-3 5,-6 7,-8l36 -50zm-2570 227c-40,-58 -72,-181 -101,-242 125,33 114,179 114,257l-13 -15zm2941 -499c-1,-1 4,-4 4,-4l-4 4zm-286 229c-30,-129 114,-219 223,-363 40,-53 26,-68 49,-37 -2,3 -3,8 -4,10l-8 21c-42,133 -113,330 -260,369zm-3885 57c-31,-373 -154,-384 143,-643 206,109 257,59 257,200 0,177 -264,411 -400,443zm171 -786l300 129c-21,31 -33,42 -43,86 -80,-19 -261,-89 -300,-143 17,-32 24,-43 43,-71zm57 -14c0,-354 37,-201 100,-343 26,-58 8,-114 42,-186 22,-46 48,-100 100,-114 61,227 302,120 30,444 -83,99 -87,92 -86,267l-187 -69zm2557 171c0,-369 294,-700 714,-700 50,0 381,308 469,417 46,57 62,125 103,183 0,-146 -90,-244 -160,-326 -44,-52 -66,-79 -115,-128 -90,-90 -152,-88 -111,-118 140,98 383,157 463,537 58,277 -110,290 -332,623 -65,97 -107,233 -245,255 -411,63 -786,-262 -786,-743zm-914 -86c-355,0 -709,-347 -682,-710 28,-367 313,-675 710,-675 390,0 728,301 728,686 0,373 -322,700 -657,700l-100 0zm-1014 -171c0,-256 158,-795 244,-973l127 73c-100,188 -100,223 -100,428 0,389 373,714 771,714 303,0 636,-200 690,-396l195 82c-8,102 -71,185 -71,357 0,244 122,466 253,590 170,160 309,196 632,196 -132,197 -294,266 -528,357 -121,47 -534,199 -666,193 -634,-33 -822,59 -1118,-409 -57,-90 -1,-60 -1,-155 0,-115 -51,-190 -129,-228 -89,-44 -99,-115 -147,-210 -100,-198 -152,-368 -152,-619zm-400 -714c0,-102 165,-357 271,-357 109,0 79,25 157,43 0,109 -57,387 -57,714 -169,-4 -371,-245 -371,-400zm3785 257c-15,-152 23,-563 38,-705 22,-211 31,-124 117,-254 36,-55 96,-176 102,-255 132,89 300,376 300,600 0,473 -352,1467 -614,1643 14,-59 51,-298 69,-330 81,-142 70,-105 92,-308 22,-203 225,-292 225,-561 0,-84 4,-73 -43,-86 0,245 -119,493 -257,586l-29 -328zm-3371 -14c0,-198 33,-436 71,-600 41,22 64,45 114,57l-181 533c-1,-2 -3,7 -5,10zm14 -600c0,-41 9,0 9,0 14,4 -9,35 -9,0zm243 43c40,-170 308,-444 480,-505 294,-104 345,-251 532,-445l-284 534 157 16c218,25 554,-100 726,-202 19,-11 170,-129 176,-128l-402 488c303,71 581,214 971,214 338,0 471,5 758,-186 -12,218 -61,924 -7,1122 38,137 25,12 85,37l-94 255c-54,-230 -118,-378 -276,-510 -177,-148 -276,-136 -412,-175 -85,-25 -91,-77 -98,-1 -276,6 -516,201 -616,389l-198 -89c130,-246 65,-568 -98,-773 -9,-11 -105,-94 -105,-100l259 117c25,-56 -270,-221 -343,-257 -182,-91 -244,-114 -514,-114l329 100c-72,-17 -151,-43 -243,-43 -403,0 -558,256 -657,328l-129 -71zm1257 -86c-1,-1 4,-4 4,-4l-4 4zm-143 -86c-1,-1 4,-4 4,-4l-4 4zm-29 -14c-1,-1 4,-4 4,-4l-4 4zm-29 -14c-1,-1 4,-4 4,-4l-4 4zm-1228 86c130,-557 351,-817 745,-1112 282,-211 857,-502 1341,-502l200 0c507,0 1243,513 1243,957 0,383 -357,659 -717,697 -594,62 -955,-164 -1183,-183 18,-69 925,-1004 728,-1114 -128,550 -701,928 -1400,928 116,-220 329,-532 329,-814 0,-99 6,-87 -43,-100 0,252 -53,305 -163,451 -345,461 -443,285 -691,523 -67,64 -224,260 -245,353l-143 -85zm-200 29c-190,0 -343,309 -343,400 0,130 70,42 -30,170 -45,57 -68,113 -80,192 -32,210 -119,85 -119,409 -46,12 -79,45 -88,95 -21,111 64,20 -35,109 -262,236 -111,436 -91,667 136,-3 444,-242 469,-460 20,-176 46,-134 74,-240 -1,-1 -149,-98 -11,-282 65,-87 151,-129 154,-261l169 50 -31 292c-30,305 190,584 234,772 -255,6 -236,138 -257,171 -27,-114 -172,-304 -318,-276 -131,26 -311,180 -311,319 0,68 123,163 157,214 -243,0 -313,36 -304,249 10,219 42,303 261,308 -46,69 -187,162 -254,232 -130,134 -146,162 -46,311 -30,35 -214,421 -214,528 0,131 138,319 257,329 -21,90 -33,192 -49,294 -21,137 -63,199 -76,281 -130,818 -261,995 -261,1967 0,163 101,259 209,319 182,101 243,55 448,38 0,290 12,338 101,542 299,689 127,378 67,682 -80,402 -60,377 209,714 205,257 204,262 495,262 204,0 486,-79 486,-257 0,-48 -31,-84 -40,-145 -34,-216 21,-173 -178,-421 -68,-85 -104,-146 -165,-236 -94,-140 105,-270 -145,-212 15,-153 91,-834 86,-943l-16 -128 230 -18c0,156 21,279 186,389 -10,18 -29,47 -29,71 0,74 154,488 184,616 186,790 787,365 787,-1 0,-107 -75,-418 -100,-529 -42,-182 -99,-321 -200,-444 -204,-251 614,-258 614,-584 0,-120 -671,-1338 -671,-1814 0,-739 13,-347 182,-532 100,-109 189,-608 189,-768 0,-172 -200,-349 -200,-371 0,-117 38,-74 -60,-168 -41,-40 -118,-87 -140,-117 271,0 346,3 557,-57 146,-42 332,-128 457,-157 -13,57 -40,72 -81,106 -116,94 -100,-61 -185,144 -17,40 -46,41 -93,76 -115,88 -183,356 -183,559 323,-7 543,-145 543,-486 130,-11 108,-63 127,-121 8,-23 60,-133 81,-185 47,-115 230,-76 249,-308 134,-11 305,-68 314,-201 10,-142 -46,-80 53,-174 54,-51 84,-74 119,-139 145,97 57,-33 80,-76 38,-71 219,-208 385,-601 151,-358 263,-765 263,-1194 0,-254 -162,-404 -283,-545 -44,-52 -9,-47 -18,-152 -32,-361 -652,-960 -1326,-960l-114 0c-712,0 -1648,534 -1952,1076 -63,112 -110,215 -153,347 -70,215 -20,174 -137,249 -67,43 1,14 -85,14z"/>
   <path fill="#fff" d="M6067 1119c0,-52 -12,-80 -29,-114 25,9 33,13 53,62 58,146 -8,324 -105,443 -25,31 -37,52 -65,78 -60,56 -256,198 -340,217l296 -261c135,-133 189,-237 189,-425zm-2771 843l143 85c21,-94 179,-289 245,-353 248,-238 345,-63 691,-523 110,-146 163,-199 163,-451 49,13 43,1 43,100 0,282 -212,594 -329,814 699,0 1271,-378 1400,-928 196,110 -710,1045 -728,1114 228,19 589,245 1183,183 360,-38 717,-315 717,-697 0,-444 -735,-957 -1243,-957l-200 0c-484,0 -1059,290 -1341,502 -393,295 -615,556 -745,1112z"/>
   <path fill="#fff" d="M5053 4490l17 12c11,15 -519,174 -745,174 -187,0 -267,-37 -400,-214 -62,-83 -174,-231 -200,-343 29,21 83,134 149,222l173 198c187,145 256,125 598,57 81,-16 137,-31 208,-49l200 -57zm-43 -129c65,-89 114,-26 114,-214 0,-81 -80,-165 -86,-229 101,68 219,336 29,429 -21,10 -24,11 -58,14zm-486 -957c146,-98 103,-55 243,-129 -27,75 -122,60 -214,157 2,28 10,66 18,96 9,32 16,36 25,75 2,-3 3,-7 3,-9l11 -62c46,31 32,24 57,71 -52,72 -17,-36 -43,43 115,77 74,-14 186,-14 21,53 2,9 1,28 -1,56 -19,-36 -1,15 171,-40 91,-109 43,-314 35,26 43,50 59,98 96,272 -23,259 -288,259 -103,-153 -100,-153 -100,-314zm86 200c-1,1 4,4 4,4l-4 -4zm-771 229c-81,-116 53,-283 189,-310l-103 96c348,0 422,109 625,232 137,83 430,138 546,311 -89,168 -328,200 -514,200 -280,0 -335,-60 -463,-222 -96,-121 -222,-255 -222,-463 -38,28 -52,98 -57,157zm-643 -728c0,251 52,421 152,619 48,95 58,166 147,210 78,38 129,112 129,228 0,94 -56,65 1,155 296,469 484,376 1118,409 133,7 545,-145 666,-193 234,-91 396,-160 528,-357 -324,0 -462,-36 -632,-196 -131,-123 -253,-346 -253,-590 0,-172 63,-255 71,-357l-195 -82c-54,196 -388,396 -690,396 -398,0 -771,-325 -771,-714 0,-205 0,-240 100,-428l-127 -73c-86,178 -244,717 -244,973z"/>
   <path fill="#fff" d="M3468 2076l129 71c99,-72 254,-328 657,-328 91,0 171,26 243,43l-329 -100c271,0 333,23 514,114 72,36 367,202 343,257l-259 -117c-1,6 96,89 105,100 163,205 228,528 98,773l198 89c100,-189 339,-383 616,-389 6,-76 13,-24 98,1 136,39 235,27 412,175 158,132 222,280 276,510l94 -255c-60,-25 -47,99 -85,-37 -55,-198 -5,-904 7,-1122 -287,190 -420,186 -758,186 -390,0 -668,-144 -971,-214l402 -488c-6,-1 -157,117 -176,128 -172,103 -508,227 -726,202l-157 -16 284 -534c-187,194 -239,341 -532,445 -173,61 -441,335 -480,505z"/>
   <path fill="#fff" d="M3625 2390c94,8 246,74 286,129 103,-69 189,-71 314,-71 112,0 185,120 224,205 61,133 62,196 62,381 -65,-34 -178,-125 -238,-176 -64,-55 -164,-159 -219,-195l49 126c-56,-29 -105,-191 -330,-316 -47,-26 -120,-44 -148,-81zm428 257c-3,-10 -56,-17 -16,-1 0,0 31,43 16,1zm157 628l100 0c335,0 657,-326 657,-700 0,-385 -338,-686 -728,-686 -397,0 -682,308 -710,675 -28,363 327,710 682,710z"/>
   <path fill="#fff" d="M5211 3418c49,-67 247,-171 400,-171 122,0 261,276 271,400 71,6 152,26 186,71l-500 -85c-35,-88 23,22 0,-43 -76,-18 -322,-123 -357,-171zm-86 -57c0,481 375,807 786,743 139,-21 181,-157 245,-255 221,-332 389,-346 332,-623 -80,-380 -323,-440 -463,-537 -41,29 21,27 111,118 49,49 71,76 115,128 70,82 160,180 160,326 -40,-58 -57,-126 -103,-183 -87,-109 -418,-417 -469,-417 -420,0 -714,331 -714,700z"/>
   <path fill="#fff" d="M3625 5989c26,-50 129,-228 186,-243 -42,88 -75,217 -186,243zm143 -414l4 4c0,0 -6,-3 -4,-4zm-300 -386c99,3 227,-23 300,86l-284 -53 -15 96c118,0 219,-13 271,57l-300 -32 -11 76c171,-1 306,14 339,156 -145,-97 -69,-114 -329,-114 -48,0 -42,26 -43,71 161,38 264,-36 300,100l-195 -51 109 179c-42,-31 -141,-117 -143,-186l-101 -25c-137,202 -298,365 -227,667l186 0c7,-78 57,-147 57,-214 0,-63 -43,-86 -43,-157 0,-82 39,-235 100,-257 -13,27 -57,205 -57,243 0,182 104,157 171,200l-99 18c86,161 132,222 260,350 59,58 266,261 354,261 127,0 314,-160 361,-267 50,-114 156,-338 181,-447l-226 -147 -238 227 173 213c-67,32 -261,-247 -310,-306 -277,-342 -171,-140 -171,-471 0,-145 -73,-300 -214,-300 -68,0 -103,16 -157,29z"/>
   <path fill="#fff" d="M2368 6304l-59 428c284,190 748,200 1216,200 429,0 676,7 943,-171l0 -343c-76,88 -34,86 -155,174 -287,208 -393,22 -417,26l-299 49c-152,23 -630,-81 -630,-321 0,-80 48,-112 129,-114 0,-415 45,-425 229,-700l-43 0c-3,121 -29,19 -81,134l-250 393c-130,175 -319,250 -584,244z"/>
   <path fill="#fff" d="M2797 5604c0,88 54,290 43,314 -90,-24 -71,-241 -71,-357 -87,7 -231,87 -305,124 -49,24 -257,165 -268,130 -15,-49 460,-287 572,-296l29 -128 -397 -112c-90,176 -172,388 -248,566 -82,191 78,431 288,431 174,0 379,-115 459,-212 64,-77 78,-122 125,-204 39,-68 138,-176 149,-213l-90 -27 22 -70 -164 -3c36,-49 89,-43 157,-43 101,0 23,62 14,100 47,-1 129,-18 129,-57 0,-162 -129,-151 -200,-200 164,0 212,39 243,171l71 -43c-9,-116 -142,-197 -271,-200l0 -29c258,6 180,67 314,157 0,-139 -62,-218 -186,-229l0 -29c101,2 180,59 200,143l29 0c0,-150 -26,-158 -154,-189 -122,-29 -165,-44 -242,51 -107,132 -247,220 -247,453z"/>
   <path fill="#fff" d="M2640 9189c0,345 114,525 233,838 28,74 41,224 96,261 19,8 124,-70 184,-88 57,-17 190,-65 245,-69 33,-330 85,-701 86,-1028 0,-75 -307,6 -395,19 -130,18 -319,37 -447,67z"/>
   <path fill="#fff" d="M6582 2647l29 328c138,-93 257,-341 257,-586 47,12 43,2 43,86 0,269 -203,358 -225,561 -22,204 -10,167 -92,308 -18,32 -56,271 -69,330 262,-176 614,-1169 614,-1643 0,-224 -168,-511 -300,-600 -7,79 -66,200 -102,255 -86,130 -95,43 -117,254 -15,142 -53,553 -38,705z"/>
   <path fill="#fff" d="M2840 10331c-80,345 -53,296 126,545 196,272 348,298 645,298 142,0 203,-59 286,-114l-32 -271c-147,40 -98,128 -425,128 -190,0 -277,-83 -365,-192 -60,-75 -198,-257 -220,-351 117,85 263,500 571,500 250,0 224,1 414,-100l-350 -509c-110,3 -430,112 -497,116 -82,4 -78,-43 -153,-50z"/>
   <path fill="#fff" d="M2897 5047c0,-127 77,-318 171,-343 -18,34 -27,46 -48,81 -20,35 -31,46 -48,80l-52 148c-18,40 -12,21 -23,34zm-371 -400c28,-39 9,-22 59,-41 30,-12 49,-20 73,-27 52,-16 108,-31 169,-31 114,0 110,46 114,57 -127,-61 -307,40 -414,43zm528 -186c-2,-3 -5,-6 -7,-8l-68 -104c-41,-61 -216,-253 -226,-288 112,75 297,249 300,400zm-686 86c0,276 69,300 243,300 153,0 291,-230 386,-186 -68,93 -329,151 -329,343 0,110 126,143 229,143 121,0 257,-138 257,-229 0,-14 -34,-99 -43,-172 -15,-130 -72,-63 -72,-157 0,-71 34,-94 100,-100 -38,-79 3,-285 -61,-410 -39,-76 -141,-247 -239,-247 -147,0 -357,205 -311,310 66,151 234,205 366,292 25,17 211,181 95,122 -53,-27 -112,-94 -197,-134 -155,-72 -424,-121 -424,124z"/>
   <path fill="#fff" d="M4111 9731c-50,0 -79,-14 -100,-43l-17 12c0,0 194,628 235,669 58,58 251,94 338,47 75,-41 158,-185 158,-300 0,-227 -128,-442 -143,-614 -75,87 -31,111 -171,172 -70,30 -200,57 -300,57z"/>
   <path fill="#fff" d="M2254 6903c0,112 710,257 900,257 719,0 720,-41 1343,-186l-17 -171c-191,130 -322,157 -640,157 -405,0 -1002,31 -1363,-94 -81,-28 -133,-77 -194,-91 -12,51 -29,67 -29,129z"/>
   <path fill="#fff" d="M4182 5404l-315 -26c4,46 18,62 15,126l-17 174 152 -118 80 446c70,-40 94,-96 146,-142 70,-62 153,-74 25,-103 9,-104 174,-179 248,-323 44,-86 128,-338 138,-448l-177 -167c62,155 -145,581 -294,581z"/>
   <path fill="#fff" d="M4139 9189c135,0 169,-52 243,-71 -80,119 -275,136 -397,97 -35,-11 -41,-26 -88,-26l243 0zm171 -143c-78,0 -508,-20 -528,0 -110,110 343,571 400,571 276,0 314,-333 314,-614 -46,22 -117,43 -186,43z"/>
   <path fill="#000" d="M4768 4090c184,43 245,25 286,86 -69,39 -235,7 -314,0 10,-44 18,-41 29,-86zm-229 57l43 0 0 14 -43 0 0 -14zm-57 -14c15,-15 52,21 17,8 0,0 -41,16 -17,-8zm-14 0c-28,-7 -27,-5 -53,-18 -27,-14 -22,-15 -33,-25l86 43zm243 14c-68,0 -59,-10 -114,-14l43 -85c28,13 50,20 85,28 -2,21 -8,57 -14,71zm-114 -114c-10,44 -18,41 -29,86 -61,-29 -55,-8 -129,-57 16,-29 20,-34 29,-71 41,10 95,27 129,43zm-157 -71c-18,66 -22,13 -29,86 -61,-14 -84,-40 -114,-86 43,-10 32,-1 43,-43 88,47 32,37 100,43zm-317 -97l34 28 -14 9 -34 -28 14 -9zm160 83c-73,-17 -70,-29 -97,-83l26 -31c59,14 71,27 102,73l-31 41zm-226 -130l0 0zm87 -73l54 60c-49,33 -57,57 -114,-29 43,-13 22,-5 60,-32zm-203 -25c94,108 205,246 320,337 242,192 444,179 751,147 -89,125 -593,152 -710,70 -106,-75 -336,-361 -361,-553zm43 29c-1,-1 4,-4 4,-4l-4 4zm1000 357c-121,-3 -388,-119 -496,-161 -93,-37 -335,-207 -375,-267 100,23 158,42 239,90 209,123 67,77 321,179l272 128c16,11 28,21 40,32zm-928 -357c-49,0 -62,-45 -71,-86 77,0 98,9 114,71 -38,19 12,14 -43,14zm-86 -43c-34,-21 -19,-4 -29,-43 30,22 19,1 29,43zm-129 129c5,-59 19,-129 57,-157 0,208 127,342 222,463 128,163 183,222 463,222 186,0 425,-32 514,-200 -116,-173 -409,-228 -546,-311 -203,-123 -278,-232 -625,-232l103 -96c-136,27 -270,194 -189,310z"/>
   <path fill="#fff" d="M3882 5104c199,0 366,-198 443,-343 -553,0 -551,-229 -700,-329 0,293 -32,671 257,671z"/>
   <path fill="#fff" d="M4325 5718c49,68 348,158 386,300l29 0c17,-208 100,-274 100,-614 0,-76 -125,-252 -171,-286 -122,524 -244,453 -343,600z"/>
   <path fill="#fff" d="M2854 2347c0,-144 166,-206 243,-243 -21,57 -56,34 -126,103 -89,88 -98,196 -14,294 41,48 71,46 154,46 -23,32 10,29 -100,29 -63,0 -157,-119 -157,-229zm-57 43c0,155 202,396 371,400 0,-327 57,-605 57,-714 -79,-18 -48,-43 -157,-43 -106,0 -271,256 -271,357z"/>
   <path fill="#fff" d="M3211 6332c173,-67 197,86 100,86 -104,0 -100,6 -100,-86zm-214 29c0,193 442,272 657,257l200 -28c-48,-72 -117,-109 -200,-129 0,-222 -322,-200 -514,-200 -75,0 -143,29 -143,100z"/>
   <path fill="#fff" d="M2340 3990c136,-32 400,-266 400,-443 0,-141 -51,-91 -257,-200 -297,258 -174,270 -143,643z"/>
   <path fill="#fff" d="M4996 5404c241,-56 471,-84 471,-457 -145,-3 -199,-182 -352,20 -60,79 -120,303 -120,437z"/>
   <path fill="#fff" d="M2568 3190l187 69c-1,-175 3,-168 86,-267 272,-324 30,-218 -30,-444 -53,14 -78,67 -100,114 -34,72 -17,128 -42,186 -63,142 -100,-11 -100,343z"/>
   <path fill="#fff" d="M3197 4304c0,-162 106,-288 131,-288l12 17c-16,18 4,-8 -20,23 -92,120 -94,280 -94,434l-29 -186zm-43 -200c0,537 47,334 57,457 114,-77 214,-195 329,-271 -12,-53 -52,-120 -76,-181 -43,-111 -32,-161 -124,-161 -110,0 -186,42 -186,157z"/>
   <path fill="#fff" d="M3925 11088c-157,105 -161,129 -400,129 -472,0 -596,-360 -743,-528 0,138 72,211 176,338 217,268 239,381 686,309 142,-23 281,-92 281,-248z"/>
   <path fill="#000" d="M4154 2690c38,-57 127,-107 214,-114 142,269 74,202 114,286 -21,14 -76,74 -80,17 -1,-19 37,-56 37,-117 0,-83 -59,-145 -186,-114l16 12c36,36 27,-1 27,45l-14 57c-44,0 -69,5 -71,-86 -52,35 -13,33 -57,14zm-100 -43c15,41 -16,-1 -16,-1 -40,-16 12,-8 16,1zm257 -100c-82,19 -145,54 -186,114 -45,-30 -143,-101 -171,-143 77,-37 298,-51 357,29zm-686 -157c27,37 101,55 148,81 226,125 275,287 330,316l-49 -126c55,37 154,141 219,195 60,51 174,142 238,176 0,-185 -1,-248 -62,-381 -39,-84 -112,-205 -224,-205 -126,0 -211,2 -314,71 -40,-55 -192,-121 -286,-129z"/>
   <path fill="#000" d="M5770 3430c28,51 55,114 55,188 -60,-29 -125,-39 -186,-71 7,-29 20,-82 22,-119 3,-40 -8,-69 -8,-124l70 59c19,22 33,40 47,67zm-317 -26c-29,0 -57,7 -57,-43l0 -43 71 0c0,59 5,51 -14,86zm114 43c0,-85 -13,-77 -28,-141l57 -16c29,60 50,195 -14,243 -58,-42 -14,-10 -14,-86zm-357 -29c35,48 281,154 357,171 23,64 -35,-45 0,43l500 85c-33,-45 -115,-65 -186,-71 -10,-124 -149,-400 -271,-400 -153,0 -350,104 -400,171z"/>
   <path fill="#fff" d="M3239 4632c34,-47 173,-132 243,0 -50,-12 -48,-29 -100,-29 -59,0 -68,27 -143,29zm-100 86c0,102 39,214 143,214 106,0 444,-427 189,-506 -59,-18 -75,32 -124,71 -178,142 -94,95 -149,165 -24,30 -59,32 -59,55z"/>
   <path fill="#fff" d="M4260 4055c-115,-91 -226,-229 -320,-337 25,192 255,478 361,553 117,82 621,55 710,-70 -307,32 -509,45 -751,-147z"/>
   <path fill="#fff" d="M3911 5147c9,40 94,157 129,157 51,0 226,-104 266,-134 183,-139 131,-264 120,-394l-71 0c-36,154 -276,357 -443,371z"/>
   <path fill="#fff" d="M2282 5261c101,0 222,-5 302,12 108,23 162,69 241,88 19,-71 105,-129 143,-186 -95,2 -127,29 -225,-18 -125,-60 -126,-143 -104,-239 -93,62 -295,250 -357,343z"/>
   <path fill="#fff" d="M4768 10089c0,290 -202,486 -500,329 24,91 272,157 446,-39 190,-214 78,-474 12,-805 -25,-125 -91,-274 -164,-379 -7,-10 -11,-15 -18,-25 -19,-25 -8,-10 -19,-23 0,57 -9,104 -11,133l80 212c58,145 174,444 174,598z"/>
   <path fill="#fff" d="M5410 4732c62,14 125,55 171,86 118,-176 50,-196 147,-253 97,-58 179,-82 182,-232l-281 162c-126,60 -60,15 -107,122 -26,60 -70,53 -112,116z"/>
   <path fill="#fff" d="M4982 4104c-12,-10 -24,-21 -40,-32l-272 -128c-254,-103 -112,-56 -321,-179 -81,-48 -139,-67 -239,-90 41,61 282,231 375,267 108,42 375,158 496,161z"/>
   <path fill="#fff" d="M3425 4904c32,61 66,122 100,186l171 0c-26,-98 -114,-136 -114,-443l-38 62c-60,120 -82,127 -119,196z"/>
   <path fill="#000" d="M4853 4547c-72,18 -127,33 -208,49 -342,68 -411,88 -598,-57l-173 -198c-66,-89 -120,-201 -149,-222 26,112 137,260 200,343 133,177 213,214 400,214 226,0 756,-159 745,-174l-17 -12 -200 57z"/>
   <path fill="#000" d="M4611 3604l4 4c0,0 -6,-3 -4,-4zm-86 -200c0,161 -3,161 100,314 265,0 383,13 288,-259 -17,-48 -24,-72 -59,-98 48,206 128,274 -43,314 -18,-51 0,42 1,-15 0,-19 19,25 -1,-28 -112,0 -70,92 -186,14 26,-79 -9,30 43,-43 -25,-48 -11,-40 -57,-71l-11 62c0,2 -2,6 -3,9 -9,-39 -16,-43 -25,-75 -8,-30 -16,-68 -18,-96 92,-97 187,-82 214,-157 -139,74 -97,31 -243,129z"/>
   <path fill="#000" d="M6067 1119c0,188 -54,292 -189,425l-296 261c83,-19 280,-161 340,-217 28,-26 40,-47 65,-78 97,-119 163,-297 105,-443 -19,-49 -28,-53 -53,-62 17,35 29,62 29,114z"/>
   <path fill="#fff" d="M3211 2633c2,-3 4,-12 5,-10l181 -533c-51,-12 -73,-36 -114,-57 -38,164 -71,401 -71,600z"/>
   <path fill="#fff" d="M3939 9474c54,112 27,214 200,214 362,0 469,-232 357,-314 -11,132 -124,246 -244,272 -219,46 -192,-139 -313,-172z"/>
   <path fill="#fff" d="M3854 5332c283,6 312,117 481,-105 21,-28 6,-8 19,-24l-12 -17c-5,0 -9,5 -10,9 -2,7 -13,11 -16,13l-105 66c-174,90 -165,100 -268,-4 -43,-43 -69,-52 -75,-125 -76,-6 -71,-29 -171,-29 35,47 145,69 157,214z"/>
   <path fill="#fff" d="M5910 4304c92,0 160,-15 224,-47 93,-47 90,-68 90,-196 -28,15 -57,29 -85,43 -111,54 -103,13 -229,200z"/>
   <path fill="#fff" d="M6225 3933c147,-39 218,-236 260,-369l8 -21c1,-2 2,-7 4,-10 -22,-31 -9,-16 -49,37 -109,144 -253,234 -223,363z"/>
   <path fill="#fff" d="M2468 3276c39,54 220,124 300,143 10,-44 22,-55 43,-86l-300 -129c-19,28 -26,40 -43,71z"/>
   <path fill="#fff" d="M3954 2519c28,42 126,112 171,143 41,-61 103,-95 186,-114 -59,-80 -280,-66 -357,-29z"/>
   <path fill="#fff" d="M5268 4804c22,30 172,161 314,86 -20,-73 -208,-142 -271,-157 -19,28 -26,40 -43,71z"/>
   <path fill="#fff" d="M5639 3547c61,32 126,43 186,71 0,-75 -27,-137 -55,-188 -15,-27 -28,-45 -47,-67l-70 -59c0,55 11,84 8,124 -3,37 -15,90 -22,119z"/>
   <path fill="#fff" d="M3011 10331c75,-6 196,-46 277,-66 53,-13 90,-22 138,-34 72,-18 77,-17 114,-72 -51,-43 -478,97 -528,171z"/>
   <path fill="#fff" d="M4154 2690c44,18 5,21 57,-14 2,91 28,86 71,86l14 -57c0,-46 9,-8 -27,-45l-16 -12c127,-30 186,32 186,114 0,61 -39,98 -37,117 4,57 59,-3 80,-17 -40,-83 28,-17 -114,-286 -87,7 -176,57 -214,114z"/>
   <path fill="#000" d="M2854 2347c0,110 94,229 157,229 110,0 77,3 100,-29 -83,0 -113,2 -154,-46 -84,-98 -74,-205 14,-294 69,-69 105,-46 126,-103 -77,37 -243,99 -243,243z"/>
   <path fill="#fff" d="M4739 4175c80,7 245,39 314,0 -40,-60 -101,-43 -286,-86 -10,44 -18,41 -29,86z"/>
   <path fill="#fff" d="M4553 6218c110,-2 119,-56 157,-129 -20,-38 -38,-75 -71,-100 -16,33 -30,74 -45,112 -14,36 -30,71 -41,116z"/>
   <path fill="#000" d="M5125 4147c0,189 -49,125 -114,214 33,-3 37,-4 58,-14 190,-93 72,-361 -29,-429 5,64 86,148 86,229z"/>
   <path fill="#fff" d="M3882 5704l149 151 -16 -113c-9,-57 -13,-98 -33,-139 -56,37 -59,70 -100,100z"/>
   <path fill="#000" d="M3054 4461c-3,-151 -188,-325 -300,-400 9,35 185,228 226,288l68 104c1,2 4,5 7,8z"/>
   <path fill="#000" d="M4139 9189l-243 0c47,0 53,15 88,26 122,39 318,21 397,-97 -74,20 -108,71 -243,71z"/>
   <path fill="#fff" d="M3354 6232l138 20c3,1 8,3 10,4 2,1 7,3 10,5l17 -12c0,-5 -8,-12 -9,-10l-25 -32c-36,-50 -63,-86 -68,-146 -35,26 -60,121 -71,171z"/>
   <path fill="#000" d="M2525 4647c107,-2 287,-104 414,-43 -4,-12 0,-57 -114,-57 -61,0 -117,16 -169,31 -24,7 -43,16 -73,27 -49,19 -30,3 -59,41z"/>
   <path fill="#fff" d="M3139 5032c50,4 164,26 200,43 -5,-55 -13,-37 -14,-100 -74,0 -85,-15 -143,-29 -20,42 -16,46 -43,86z"/>
   <path fill="#000" d="M3211 6332c0,92 -4,86 100,86 97,0 73,-153 -100,-86z"/>
   <path fill="#000" d="M3197 4304l29 186c0,-154 2,-314 94,-434 24,-31 4,-5 20,-23l-12 -17c-25,0 -131,126 -131,288z"/>
   <path fill="#fff" d="M3068 4604c0,50 59,88 124,24l13 -16c1,-2 4,-5 6,-8 -83,-156 -143,-15 -143,0z"/>
   <path fill="#fff" d="M5540 3306c15,64 28,56 28,141 0,76 -44,43 14,86 65,-47 43,-183 14,-243l-57 16z"/>
   <path fill="#fff" d="M4439 4061c73,49 67,28 129,57 10,-44 18,-41 29,-86 -34,-16 -88,-33 -129,-43 -9,38 -13,42 -29,71z"/>
   <path fill="#000" d="M2897 5047c11,-13 5,6 23,-34l52 -148c17,-34 28,-45 48,-80 21,-35 30,-47 48,-81 -95,25 -171,215 -171,343z"/>
   <path fill="#fff" d="M3582 4218c0,-78 10,-224 -114,-257 29,60 61,184 101,242l13 15z"/>
   <path fill="#000" d="M3625 5989c111,-26 143,-155 186,-243 -57,15 -159,193 -186,243z"/>
   <path fill="#fff" d="M4296 3961c30,45 53,71 114,86 6,-73 11,-19 29,-86 -68,-6 -12,4 -100,-43 -11,42 0,33 -43,43z"/>
   <path fill="#fff" d="M4185 3864c27,54 24,66 97,83l31 -41c-32,-46 -43,-59 -102,-73l-26 31z"/>
   <path fill="#fff" d="M4711 4147c6,-14 12,-50 14,-71 -35,-8 -57,-15 -85,-28l-43 85c55,5 46,14 114,14z"/>
   <path fill="#000" d="M3239 4632c75,-2 84,-29 143,-29 52,0 50,17 100,29 -70,-132 -209,-47 -243,0z"/>
   <path fill="#fff" d="M4054 3747c55,0 5,4 43,-14 -17,-62 -37,-71 -114,-71 9,41 22,86 71,86z"/>
   <path fill="#fff" d="M5396 3361c0,50 29,43 57,43 20,-35 14,-26 14,-86l-71 0 0 43z"/>
   <path fill="#fff" d="M3482 4375c18,25 73,75 114,86 -3,-125 -105,-101 -114,-86z"/>
   <path fill="#fff" d="M4082 3775c58,86 65,61 114,29l-54 -60c-38,27 -18,19 -60,32z"/>
   <path fill="#fff" d="M3497 5147c-15,-66 -60,-174 -114,-214 11,48 27,66 48,109 64,131 7,84 66,105z"/>
   <path fill="#fff" d="M6096 4033l12 17c0,0 88,-56 88,-74 0,-33 -5,-17 -14,-57 -8,9 -5,3 -20,23 -12,16 -14,21 -23,34l-36 50c-1,2 -5,5 -7,8z"/>
   <path fill="#fff" d="M2297 5375c35,-26 31,-19 43,-71l-71 0c12,25 16,46 29,71z"/>
   <polygon fill="#fff" points="4108,3873 4142,3901 4156,3892 4122,3864 "/>
   <path fill="#fff" d="M2911 10317l17 -12 -44 -33c21,62 -24,-21 7,22 5,6 18,21 20,23z"/>
   <polygon fill="#fff" points="4539,4161 4582,4161 4582,4147 4539,4147 "/>
   <path fill="#fff" d="M3968 3704c-10,-42 2,-21 -29,-43 9,39 -6,22 29,43z"/>
   <path fill="#fff" d="M4468 4133l-86 -43c10,9 6,10 33,25 26,14 25,12 53,18z"/>
   <path fill="#fff" d="M3554 4332c2,4 45,35 20,2 -4,-6 -33,-36 -20,-2z"/>
   <path fill="#fff" d="M4482 4133c-24,24 16,8 17,8 35,13 -2,-22 -17,-8z"/>
   <path fill="#fff" d="M3225 2033c0,35 23,4 9,0 0,0 -9,-41 -9,0z"/>
   <path fill="#fff" d="M4725 1990l4 -4c0,0 -6,3 -4,4z"/>
   <path fill="#fff" d="M3339 5532l4 -4c0,0 -6,3 -4,4z"/>
   <path fill="#fff" d="M4553 1890l4 -4c0,0 -6,3 -4,4z"/>
   <path fill="#fff" d="M3982 3747l4 -4c0,0 -6,3 -4,4z"/>
   <path fill="#fff" d="M4525 1876l4 -4c0,0 -6,3 -4,4z"/>
   <path fill="#fff" d="M2611 4889l4 -4c0,0 -6,3 -4,4z"/>
   <path fill="#fff" d="M6510 3704l4 -4c0,0 -6,3 -4,4z"/>
   <path fill="#fff" d="M2654 4347l4 -4c0,0 -6,3 -4,4z"/>
   <path fill="#fff" d="M4582 1904l4 -4c0,0 -6,3 -4,4z"/>
   <line fill="#fff" x1="4056" y1="3817" x2="4056" y2= "3817" />
  </g>
 </g>
</svg>
